<svg width="5" height="5" viewBox="0 0 5 5" fill="none" xmlns="http://www.w3.org/2000/svg">
<path d="M4.87966 4.21821C4.95909 4.30371 5.00219 4.41648 4.99991 4.5329C4.99764 4.64931 4.95017 4.76033 4.86746 4.84269C4.78474 4.92506 4.6732 4.97237 4.55621 4.97471C4.43921 4.97705 4.32585 4.93425 4.23987 4.85526L2.51267 3.13662L0.785471 4.85526C0.744072 4.89982 0.694056 4.9356 0.638422 4.96046C0.582788 4.98532 0.522683 4.99874 0.46171 4.99991C0.400737 5.00109 0.340152 4.99001 0.283589 4.96732C0.227027 4.94464 0.175651 4.91082 0.132543 4.86789C0.0894354 4.82497 0.0554835 4.77383 0.0327236 4.71753C0.00996361 4.66123 -0.00113553 4.60094 9.17246e-05 4.54027C0.00131898 4.4796 0.0148474 4.4198 0.0398656 4.36446C0.0648838 4.30912 0.100877 4.25937 0.145685 4.21821L1.87289 2.49956L0.145685 0.781791C0.100877 0.740628 0.0648838 0.690884 0.0398656 0.635543C0.0148474 0.580202 0.00131898 0.520403 9.17246e-05 0.459733C-0.00113553 0.399062 0.00996361 0.33877 0.0327236 0.282472C0.0554835 0.226174 0.0894354 0.175029 0.132543 0.132106C0.175651 0.0891819 0.227027 0.055363 0.283589 0.0326771C0.340152 0.00999122 0.400737 -0.00109435 0.46171 8.51455e-05C0.522683 0.00126464 0.582788 0.0146849 0.638422 0.0395412C0.694056 0.0643975 0.744072 0.100178 0.785471 0.144736L2.51267 1.86295L4.23987 0.144299C4.32585 0.0653157 4.43921 0.0225106 4.55621 0.0248538C4.6732 0.027197 4.78474 0.0745064 4.86746 0.156868C4.95017 0.23923 4.99764 0.350251 4.99991 0.466666C5.00219 0.583082 4.95909 0.695855 4.87966 0.781353L3.15246 2.49956L4.87966 4.21821Z" fill="black"/>
</svg>
