<svg width="20" height="20" viewBox="0 0 20 20" fill="none" xmlns="http://www.w3.org/2000/svg">
<path d="M14.2342 1.66667C16.46 1.6925 18.3333 3.97167 18.3333 6.66667C18.3333 10.9217 12.9417 15.8075 9.99917 17.9942C7.055 15.8117 1.66667 10.9333 1.66667 6.66667C1.66667 3.97167 3.54 1.6925 5.765 1.66667C7.98833 1.8125 8.27167 2.33417 10 4.06583C11.7242 2.33833 12.015 1.81083 14.2342 1.66667ZM14.0925 0.00500003L14.0933 0C12.4942 0 11.0492 0.654166 10 1.70667C8.95083 0.654166 7.50583 0 5.90667 0L5.9075 0.00500003C2.53667 -0.0533333 0 3.09917 0 6.66667C0 13.3333 9.94833 20 9.94833 20H10.0517C10.0517 20 20 13.3333 20 6.66667C20 3.09417 17.4592 -0.0533333 14.0925 0.00500003Z" fill="#BDCDD6"/>
</svg>
