<svg width="319" height="74" viewBox="0 0 319 74" fill="none" xmlns="http://www.w3.org/2000/svg">
<path d="M4.83398 1.18945C4.36133 1.18945 3.93555 1.27148 3.55664 1.43555C3.18164 1.5957 2.86133 1.83008 2.5957 2.13867C2.33398 2.44336 2.13281 2.8125 1.99219 3.24609C1.85156 3.67969 1.78125 4.16797 1.78125 4.71094C1.78125 5.42969 1.89258 6.05469 2.11523 6.58594C2.3418 7.11328 2.67773 7.52148 3.12305 7.81055C3.57227 8.09961 4.13281 8.24414 4.80469 8.24414C5.1875 8.24414 5.54688 8.21289 5.88281 8.15039C6.22266 8.08398 6.55273 8.00195 6.87305 7.9043V8.77148C6.56055 8.88867 6.23242 8.97461 5.88867 9.0293C5.54492 9.08789 5.13672 9.11719 4.66406 9.11719C3.79297 9.11719 3.06445 8.9375 2.47852 8.57812C1.89648 8.21484 1.45898 7.70312 1.16602 7.04297C0.876953 6.38281 0.732422 5.60352 0.732422 4.70508C0.732422 4.05664 0.822266 3.46484 1.00195 2.92969C1.18555 2.39062 1.45117 1.92578 1.79883 1.53516C2.15039 1.14453 2.58008 0.84375 3.08789 0.632812C3.59961 0.417969 4.18555 0.310547 4.8457 0.310547C5.2793 0.310547 5.69727 0.353516 6.09961 0.439453C6.50195 0.525391 6.86523 0.648438 7.18945 0.808594L6.79102 1.65234C6.51758 1.52734 6.2168 1.41992 5.88867 1.33008C5.56445 1.23633 5.21289 1.18945 4.83398 1.18945ZM8.73047 9V0.433594H9.72656V8.10938H13.5293V9H8.73047ZM21.7793 1.18945C21.3066 1.18945 20.8809 1.27148 20.502 1.43555C20.127 1.5957 19.8066 1.83008 19.541 2.13867C19.2793 2.44336 19.0781 2.8125 18.9375 3.24609C18.7969 3.67969 18.7266 4.16797 18.7266 4.71094C18.7266 5.42969 18.8379 6.05469 19.0605 6.58594C19.2871 7.11328 19.623 7.52148 20.0684 7.81055C20.5176 8.09961 21.0781 8.24414 21.75 8.24414C22.1328 8.24414 22.4922 8.21289 22.8281 8.15039C23.168 8.08398 23.498 8.00195 23.8184 7.9043V8.77148C23.5059 8.88867 23.1777 8.97461 22.834 9.0293C22.4902 9.08789 22.082 9.11719 21.6094 9.11719C20.7383 9.11719 20.0098 8.9375 19.4238 8.57812C18.8418 8.21484 18.4043 7.70312 18.1113 7.04297C17.8223 6.38281 17.6777 5.60352 17.6777 4.70508C17.6777 4.05664 17.7676 3.46484 17.9473 2.92969C18.1309 2.39062 18.3965 1.92578 18.7441 1.53516C19.0957 1.14453 19.5254 0.84375 20.0332 0.632812C20.5449 0.417969 21.1309 0.310547 21.791 0.310547C22.2246 0.310547 22.6426 0.353516 23.0449 0.439453C23.4473 0.525391 23.8105 0.648438 24.1348 0.808594L23.7363 1.65234C23.4629 1.52734 23.1621 1.41992 22.834 1.33008C22.5098 1.23633 22.1582 1.18945 21.7793 1.18945ZM25.6758 9V0.433594H26.6719V8.10938H30.4746V9H25.6758ZM38.7246 1.18945C38.252 1.18945 37.8262 1.27148 37.4473 1.43555C37.0723 1.5957 36.752 1.83008 36.4863 2.13867C36.2246 2.44336 36.0234 2.8125 35.8828 3.24609C35.7422 3.67969 35.6719 4.16797 35.6719 4.71094C35.6719 5.42969 35.7832 6.05469 36.0059 6.58594C36.2324 7.11328 36.5684 7.52148 37.0137 7.81055C37.4629 8.09961 38.0234 8.24414 38.6953 8.24414C39.0781 8.24414 39.4375 8.21289 39.7734 8.15039C40.1133 8.08398 40.4434 8.00195 40.7637 7.9043V8.77148C40.4512 8.88867 40.123 8.97461 39.7793 9.0293C39.4355 9.08789 39.0273 9.11719 38.5547 9.11719C37.6836 9.11719 36.9551 8.9375 36.3691 8.57812C35.7871 8.21484 35.3496 7.70312 35.0566 7.04297C34.7676 6.38281 34.623 5.60352 34.623 4.70508C34.623 4.05664 34.7129 3.46484 34.8926 2.92969C35.0762 2.39062 35.3418 1.92578 35.6895 1.53516C36.041 1.14453 36.4707 0.84375 36.9785 0.632812C37.4902 0.417969 38.0762 0.310547 38.7363 0.310547C39.1699 0.310547 39.5879 0.353516 39.9902 0.439453C40.3926 0.525391 40.7559 0.648438 41.0801 0.808594L40.6816 1.65234C40.4082 1.52734 40.1074 1.41992 39.7793 1.33008C39.4551 1.23633 39.1035 1.18945 38.7246 1.18945ZM42.6211 9V0.433594H43.6172V8.10938H47.4199V9H42.6211ZM55.6699 1.18945C55.1973 1.18945 54.7715 1.27148 54.3926 1.43555C54.0176 1.5957 53.6973 1.83008 53.4316 2.13867C53.1699 2.44336 52.9688 2.8125 52.8281 3.24609C52.6875 3.67969 52.6172 4.16797 52.6172 4.71094C52.6172 5.42969 52.7285 6.05469 52.9512 6.58594C53.1777 7.11328 53.5137 7.52148 53.959 7.81055C54.4082 8.09961 54.9688 8.24414 55.6406 8.24414C56.0234 8.24414 56.3828 8.21289 56.7188 8.15039C57.0586 8.08398 57.3887 8.00195 57.709 7.9043V8.77148C57.3965 8.88867 57.0684 8.97461 56.7246 9.0293C56.3809 9.08789 55.9727 9.11719 55.5 9.11719C54.6289 9.11719 53.9004 8.9375 53.3145 8.57812C52.7324 8.21484 52.2949 7.70312 52.002 7.04297C51.7129 6.38281 51.5684 5.60352 51.5684 4.70508C51.5684 4.05664 51.6582 3.46484 51.8379 2.92969C52.0215 2.39062 52.2871 1.92578 52.6348 1.53516C52.9863 1.14453 53.416 0.84375 53.9238 0.632812C54.4355 0.417969 55.0215 0.310547 55.6816 0.310547C56.1152 0.310547 56.5332 0.353516 56.9355 0.439453C57.3379 0.525391 57.7012 0.648438 58.0254 0.808594L57.627 1.65234C57.3535 1.52734 57.0527 1.41992 56.7246 1.33008C56.4004 1.23633 56.0488 1.18945 55.6699 1.18945ZM59.5664 9V0.433594H60.5625V8.10938H64.3652V9H59.5664ZM72.6152 1.18945C72.1426 1.18945 71.7168 1.27148 71.3379 1.43555C70.9629 1.5957 70.6426 1.83008 70.377 2.13867C70.1152 2.44336 69.9141 2.8125 69.7734 3.24609C69.6328 3.67969 69.5625 4.16797 69.5625 4.71094C69.5625 5.42969 69.6738 6.05469 69.8965 6.58594C70.123 7.11328 70.459 7.52148 70.9043 7.81055C71.3535 8.09961 71.9141 8.24414 72.5859 8.24414C72.9688 8.24414 73.3281 8.21289 73.6641 8.15039C74.0039 8.08398 74.334 8.00195 74.6543 7.9043V8.77148C74.3418 8.88867 74.0137 8.97461 73.6699 9.0293C73.3262 9.08789 72.918 9.11719 72.4453 9.11719C71.5742 9.11719 70.8457 8.9375 70.2598 8.57812C69.6777 8.21484 69.2402 7.70312 68.9473 7.04297C68.6582 6.38281 68.5137 5.60352 68.5137 4.70508C68.5137 4.05664 68.6035 3.46484 68.7832 2.92969C68.9668 2.39062 69.2324 1.92578 69.5801 1.53516C69.9316 1.14453 70.3613 0.84375 70.8691 0.632812C71.3809 0.417969 71.9668 0.310547 72.627 0.310547C73.0605 0.310547 73.4785 0.353516 73.8809 0.439453C74.2832 0.525391 74.6465 0.648438 74.9707 0.808594L74.5723 1.65234C74.2988 1.52734 73.998 1.41992 73.6699 1.33008C73.3457 1.23633 72.9941 1.18945 72.6152 1.18945ZM76.5117 9V0.433594H77.5078V8.10938H81.3105V9H76.5117ZM89.5605 1.18945C89.0879 1.18945 88.6621 1.27148 88.2832 1.43555C87.9082 1.5957 87.5879 1.83008 87.3223 2.13867C87.0605 2.44336 86.8594 2.8125 86.7188 3.24609C86.5781 3.67969 86.5078 4.16797 86.5078 4.71094C86.5078 5.42969 86.6191 6.05469 86.8418 6.58594C87.0684 7.11328 87.4043 7.52148 87.8496 7.81055C88.2988 8.09961 88.8594 8.24414 89.5312 8.24414C89.9141 8.24414 90.2734 8.21289 90.6094 8.15039C90.9492 8.08398 91.2793 8.00195 91.5996 7.9043V8.77148C91.2871 8.88867 90.959 8.97461 90.6152 9.0293C90.2715 9.08789 89.8633 9.11719 89.3906 9.11719C88.5195 9.11719 87.791 8.9375 87.2051 8.57812C86.623 8.21484 86.1855 7.70312 85.8926 7.04297C85.6035 6.38281 85.459 5.60352 85.459 4.70508C85.459 4.05664 85.5488 3.46484 85.7285 2.92969C85.9121 2.39062 86.1777 1.92578 86.5254 1.53516C86.877 1.14453 87.3066 0.84375 87.8145 0.632812C88.3262 0.417969 88.9121 0.310547 89.5723 0.310547C90.0059 0.310547 90.4238 0.353516 90.8262 0.439453C91.2285 0.525391 91.5918 0.648438 91.916 0.808594L91.5176 1.65234C91.2441 1.52734 90.9434 1.41992 90.6152 1.33008C90.291 1.23633 89.9395 1.18945 89.5605 1.18945ZM93.457 9V0.433594H94.4531V8.10938H98.2559V9H93.457ZM106.506 1.18945C106.033 1.18945 105.607 1.27148 105.229 1.43555C104.854 1.5957 104.533 1.83008 104.268 2.13867C104.006 2.44336 103.805 2.8125 103.664 3.24609C103.523 3.67969 103.453 4.16797 103.453 4.71094C103.453 5.42969 103.564 6.05469 103.787 6.58594C104.014 7.11328 104.35 7.52148 104.795 7.81055C105.244 8.09961 105.805 8.24414 106.477 8.24414C106.859 8.24414 107.219 8.21289 107.555 8.15039C107.895 8.08398 108.225 8.00195 108.545 7.9043V8.77148C108.232 8.88867 107.904 8.97461 107.561 9.0293C107.217 9.08789 106.809 9.11719 106.336 9.11719C105.465 9.11719 104.736 8.9375 104.15 8.57812C103.568 8.21484 103.131 7.70312 102.838 7.04297C102.549 6.38281 102.404 5.60352 102.404 4.70508C102.404 4.05664 102.494 3.46484 102.674 2.92969C102.857 2.39062 103.123 1.92578 103.471 1.53516C103.822 1.14453 104.252 0.84375 104.76 0.632812C105.271 0.417969 105.857 0.310547 106.518 0.310547C106.951 0.310547 107.369 0.353516 107.771 0.439453C108.174 0.525391 108.537 0.648438 108.861 0.808594L108.463 1.65234C108.189 1.52734 107.889 1.41992 107.561 1.33008C107.236 1.23633 106.885 1.18945 106.506 1.18945ZM110.402 9V0.433594H111.398V8.10938H115.201V9H110.402ZM123.451 1.18945C122.979 1.18945 122.553 1.27148 122.174 1.43555C121.799 1.5957 121.479 1.83008 121.213 2.13867C120.951 2.44336 120.75 2.8125 120.609 3.24609C120.469 3.67969 120.398 4.16797 120.398 4.71094C120.398 5.42969 120.51 6.05469 120.732 6.58594C120.959 7.11328 121.295 7.52148 121.74 7.81055C122.189 8.09961 122.75 8.24414 123.422 8.24414C123.805 8.24414 124.164 8.21289 124.5 8.15039C124.84 8.08398 125.17 8.00195 125.49 7.9043V8.77148C125.178 8.88867 124.85 8.97461 124.506 9.0293C124.162 9.08789 123.754 9.11719 123.281 9.11719C122.41 9.11719 121.682 8.9375 121.096 8.57812C120.514 8.21484 120.076 7.70312 119.783 7.04297C119.494 6.38281 119.35 5.60352 119.35 4.70508C119.35 4.05664 119.439 3.46484 119.619 2.92969C119.803 2.39062 120.068 1.92578 120.416 1.53516C120.768 1.14453 121.197 0.84375 121.705 0.632812C122.217 0.417969 122.803 0.310547 123.463 0.310547C123.896 0.310547 124.314 0.353516 124.717 0.439453C125.119 0.525391 125.482 0.648438 125.807 0.808594L125.408 1.65234C125.135 1.52734 124.834 1.41992 124.506 1.33008C124.182 1.23633 123.83 1.18945 123.451 1.18945ZM127.348 9V0.433594H128.344V8.10938H132.146V9H127.348ZM140.396 1.18945C139.924 1.18945 139.498 1.27148 139.119 1.43555C138.744 1.5957 138.424 1.83008 138.158 2.13867C137.896 2.44336 137.695 2.8125 137.555 3.24609C137.414 3.67969 137.344 4.16797 137.344 4.71094C137.344 5.42969 137.455 6.05469 137.678 6.58594C137.904 7.11328 138.24 7.52148 138.686 7.81055C139.135 8.09961 139.695 8.24414 140.367 8.24414C140.75 8.24414 141.109 8.21289 141.445 8.15039C141.785 8.08398 142.115 8.00195 142.436 7.9043V8.77148C142.123 8.88867 141.795 8.97461 141.451 9.0293C141.107 9.08789 140.699 9.11719 140.227 9.11719C139.355 9.11719 138.627 8.9375 138.041 8.57812C137.459 8.21484 137.021 7.70312 136.729 7.04297C136.439 6.38281 136.295 5.60352 136.295 4.70508C136.295 4.05664 136.385 3.46484 136.564 2.92969C136.748 2.39062 137.014 1.92578 137.361 1.53516C137.713 1.14453 138.143 0.84375 138.65 0.632812C139.162 0.417969 139.748 0.310547 140.408 0.310547C140.842 0.310547 141.26 0.353516 141.662 0.439453C142.064 0.525391 142.428 0.648438 142.752 0.808594L142.354 1.65234C142.08 1.52734 141.779 1.41992 141.451 1.33008C141.127 1.23633 140.775 1.18945 140.396 1.18945ZM144.293 9V0.433594H145.289V8.10938H149.092V9H144.293ZM157.342 1.18945C156.869 1.18945 156.443 1.27148 156.064 1.43555C155.689 1.5957 155.369 1.83008 155.104 2.13867C154.842 2.44336 154.641 2.8125 154.5 3.24609C154.359 3.67969 154.289 4.16797 154.289 4.71094C154.289 5.42969 154.4 6.05469 154.623 6.58594C154.85 7.11328 155.186 7.52148 155.631 7.81055C156.08 8.09961 156.641 8.24414 157.312 8.24414C157.695 8.24414 158.055 8.21289 158.391 8.15039C158.73 8.08398 159.061 8.00195 159.381 7.9043V8.77148C159.068 8.88867 158.74 8.97461 158.396 9.0293C158.053 9.08789 157.645 9.11719 157.172 9.11719C156.301 9.11719 155.572 8.9375 154.986 8.57812C154.404 8.21484 153.967 7.70312 153.674 7.04297C153.385 6.38281 153.24 5.60352 153.24 4.70508C153.24 4.05664 153.33 3.46484 153.51 2.92969C153.693 2.39062 153.959 1.92578 154.307 1.53516C154.658 1.14453 155.088 0.84375 155.596 0.632812C156.107 0.417969 156.693 0.310547 157.354 0.310547C157.787 0.310547 158.205 0.353516 158.607 0.439453C159.01 0.525391 159.373 0.648438 159.697 0.808594L159.299 1.65234C159.025 1.52734 158.725 1.41992 158.396 1.33008C158.072 1.23633 157.721 1.18945 157.342 1.18945ZM161.238 9V0.433594H162.234V8.10938H166.037V9H161.238ZM174.287 1.18945C173.814 1.18945 173.389 1.27148 173.01 1.43555C172.635 1.5957 172.314 1.83008 172.049 2.13867C171.787 2.44336 171.586 2.8125 171.445 3.24609C171.305 3.67969 171.234 4.16797 171.234 4.71094C171.234 5.42969 171.346 6.05469 171.568 6.58594C171.795 7.11328 172.131 7.52148 172.576 7.81055C173.025 8.09961 173.586 8.24414 174.258 8.24414C174.641 8.24414 175 8.21289 175.336 8.15039C175.676 8.08398 176.006 8.00195 176.326 7.9043V8.77148C176.014 8.88867 175.686 8.97461 175.342 9.0293C174.998 9.08789 174.59 9.11719 174.117 9.11719C173.246 9.11719 172.518 8.9375 171.932 8.57812C171.35 8.21484 170.912 7.70312 170.619 7.04297C170.33 6.38281 170.186 5.60352 170.186 4.70508C170.186 4.05664 170.275 3.46484 170.455 2.92969C170.639 2.39062 170.904 1.92578 171.252 1.53516C171.604 1.14453 172.033 0.84375 172.541 0.632812C173.053 0.417969 173.639 0.310547 174.299 0.310547C174.732 0.310547 175.15 0.353516 175.553 0.439453C175.955 0.525391 176.318 0.648438 176.643 0.808594L176.244 1.65234C175.971 1.52734 175.67 1.41992 175.342 1.33008C175.018 1.23633 174.666 1.18945 174.287 1.18945ZM178.184 9V0.433594H179.18V8.10938H182.982V9H178.184ZM191.232 1.18945C190.76 1.18945 190.334 1.27148 189.955 1.43555C189.58 1.5957 189.26 1.83008 188.994 2.13867C188.732 2.44336 188.531 2.8125 188.391 3.24609C188.25 3.67969 188.18 4.16797 188.18 4.71094C188.18 5.42969 188.291 6.05469 188.514 6.58594C188.74 7.11328 189.076 7.52148 189.521 7.81055C189.971 8.09961 190.531 8.24414 191.203 8.24414C191.586 8.24414 191.945 8.21289 192.281 8.15039C192.621 8.08398 192.951 8.00195 193.271 7.9043V8.77148C192.959 8.88867 192.631 8.97461 192.287 9.0293C191.943 9.08789 191.535 9.11719 191.062 9.11719C190.191 9.11719 189.463 8.9375 188.877 8.57812C188.295 8.21484 187.857 7.70312 187.564 7.04297C187.275 6.38281 187.131 5.60352 187.131 4.70508C187.131 4.05664 187.221 3.46484 187.4 2.92969C187.584 2.39062 187.85 1.92578 188.197 1.53516C188.549 1.14453 188.979 0.84375 189.486 0.632812C189.998 0.417969 190.584 0.310547 191.244 0.310547C191.678 0.310547 192.096 0.353516 192.498 0.439453C192.9 0.525391 193.264 0.648438 193.588 0.808594L193.189 1.65234C192.916 1.52734 192.615 1.41992 192.287 1.33008C191.963 1.23633 191.611 1.18945 191.232 1.18945ZM195.129 9V0.433594H196.125V8.10938H199.928V9H195.129ZM208.178 1.18945C207.705 1.18945 207.279 1.27148 206.9 1.43555C206.525 1.5957 206.205 1.83008 205.939 2.13867C205.678 2.44336 205.477 2.8125 205.336 3.24609C205.195 3.67969 205.125 4.16797 205.125 4.71094C205.125 5.42969 205.236 6.05469 205.459 6.58594C205.686 7.11328 206.021 7.52148 206.467 7.81055C206.916 8.09961 207.477 8.24414 208.148 8.24414C208.531 8.24414 208.891 8.21289 209.227 8.15039C209.566 8.08398 209.896 8.00195 210.217 7.9043V8.77148C209.904 8.88867 209.576 8.97461 209.232 9.0293C208.889 9.08789 208.48 9.11719 208.008 9.11719C207.137 9.11719 206.408 8.9375 205.822 8.57812C205.24 8.21484 204.803 7.70312 204.51 7.04297C204.221 6.38281 204.076 5.60352 204.076 4.70508C204.076 4.05664 204.166 3.46484 204.346 2.92969C204.529 2.39062 204.795 1.92578 205.143 1.53516C205.494 1.14453 205.924 0.84375 206.432 0.632812C206.943 0.417969 207.529 0.310547 208.189 0.310547C208.623 0.310547 209.041 0.353516 209.443 0.439453C209.846 0.525391 210.209 0.648438 210.533 0.808594L210.135 1.65234C209.861 1.52734 209.561 1.41992 209.232 1.33008C208.908 1.23633 208.557 1.18945 208.178 1.18945ZM212.074 9V0.433594H213.07V8.10938H216.873V9H212.074ZM225.123 1.18945C224.65 1.18945 224.225 1.27148 223.846 1.43555C223.471 1.5957 223.15 1.83008 222.885 2.13867C222.623 2.44336 222.422 2.8125 222.281 3.24609C222.141 3.67969 222.07 4.16797 222.07 4.71094C222.07 5.42969 222.182 6.05469 222.404 6.58594C222.631 7.11328 222.967 7.52148 223.412 7.81055C223.861 8.09961 224.422 8.24414 225.094 8.24414C225.477 8.24414 225.836 8.21289 226.172 8.15039C226.512 8.08398 226.842 8.00195 227.162 7.9043V8.77148C226.85 8.88867 226.521 8.97461 226.178 9.0293C225.834 9.08789 225.426 9.11719 224.953 9.11719C224.082 9.11719 223.354 8.9375 222.768 8.57812C222.186 8.21484 221.748 7.70312 221.455 7.04297C221.166 6.38281 221.021 5.60352 221.021 4.70508C221.021 4.05664 221.111 3.46484 221.291 2.92969C221.475 2.39062 221.74 1.92578 222.088 1.53516C222.439 1.14453 222.869 0.84375 223.377 0.632812C223.889 0.417969 224.475 0.310547 225.135 0.310547C225.568 0.310547 225.986 0.353516 226.389 0.439453C226.791 0.525391 227.154 0.648438 227.479 0.808594L227.08 1.65234C226.807 1.52734 226.506 1.41992 226.178 1.33008C225.854 1.23633 225.502 1.18945 225.123 1.18945ZM229.02 9V0.433594H230.016V8.10938H233.818V9H229.02ZM242.068 1.18945C241.596 1.18945 241.17 1.27148 240.791 1.43555C240.416 1.5957 240.096 1.83008 239.83 2.13867C239.568 2.44336 239.367 2.8125 239.227 3.24609C239.086 3.67969 239.016 4.16797 239.016 4.71094C239.016 5.42969 239.127 6.05469 239.35 6.58594C239.576 7.11328 239.912 7.52148 240.357 7.81055C240.807 8.09961 241.367 8.24414 242.039 8.24414C242.422 8.24414 242.781 8.21289 243.117 8.15039C243.457 8.08398 243.787 8.00195 244.107 7.9043V8.77148C243.795 8.88867 243.467 8.97461 243.123 9.0293C242.779 9.08789 242.371 9.11719 241.898 9.11719C241.027 9.11719 240.299 8.9375 239.713 8.57812C239.131 8.21484 238.693 7.70312 238.4 7.04297C238.111 6.38281 237.967 5.60352 237.967 4.70508C237.967 4.05664 238.057 3.46484 238.236 2.92969C238.42 2.39062 238.686 1.92578 239.033 1.53516C239.385 1.14453 239.814 0.84375 240.322 0.632812C240.834 0.417969 241.42 0.310547 242.08 0.310547C242.514 0.310547 242.932 0.353516 243.334 0.439453C243.736 0.525391 244.1 0.648438 244.424 0.808594L244.025 1.65234C243.752 1.52734 243.451 1.41992 243.123 1.33008C242.799 1.23633 242.447 1.18945 242.068 1.18945ZM245.965 9V0.433594H246.961V8.10938H250.764V9H245.965ZM259.014 1.18945C258.541 1.18945 258.115 1.27148 257.736 1.43555C257.361 1.5957 257.041 1.83008 256.775 2.13867C256.514 2.44336 256.312 2.8125 256.172 3.24609C256.031 3.67969 255.961 4.16797 255.961 4.71094C255.961 5.42969 256.072 6.05469 256.295 6.58594C256.521 7.11328 256.857 7.52148 257.303 7.81055C257.752 8.09961 258.312 8.24414 258.984 8.24414C259.367 8.24414 259.727 8.21289 260.062 8.15039C260.402 8.08398 260.732 8.00195 261.053 7.9043V8.77148C260.74 8.88867 260.412 8.97461 260.068 9.0293C259.725 9.08789 259.316 9.11719 258.844 9.11719C257.973 9.11719 257.244 8.9375 256.658 8.57812C256.076 8.21484 255.639 7.70312 255.346 7.04297C255.057 6.38281 254.912 5.60352 254.912 4.70508C254.912 4.05664 255.002 3.46484 255.182 2.92969C255.365 2.39062 255.631 1.92578 255.979 1.53516C256.33 1.14453 256.76 0.84375 257.268 0.632812C257.779 0.417969 258.365 0.310547 259.025 0.310547C259.459 0.310547 259.877 0.353516 260.279 0.439453C260.682 0.525391 261.045 0.648438 261.369 0.808594L260.971 1.65234C260.697 1.52734 260.396 1.41992 260.068 1.33008C259.744 1.23633 259.393 1.18945 259.014 1.18945ZM262.91 9V0.433594H263.906V8.10938H267.709V9H262.91ZM275.959 1.18945C275.486 1.18945 275.061 1.27148 274.682 1.43555C274.307 1.5957 273.986 1.83008 273.721 2.13867C273.459 2.44336 273.258 2.8125 273.117 3.24609C272.977 3.67969 272.906 4.16797 272.906 4.71094C272.906 5.42969 273.018 6.05469 273.24 6.58594C273.467 7.11328 273.803 7.52148 274.248 7.81055C274.697 8.09961 275.258 8.24414 275.93 8.24414C276.312 8.24414 276.672 8.21289 277.008 8.15039C277.348 8.08398 277.678 8.00195 277.998 7.9043V8.77148C277.686 8.88867 277.357 8.97461 277.014 9.0293C276.67 9.08789 276.262 9.11719 275.789 9.11719C274.918 9.11719 274.189 8.9375 273.604 8.57812C273.021 8.21484 272.584 7.70312 272.291 7.04297C272.002 6.38281 271.857 5.60352 271.857 4.70508C271.857 4.05664 271.947 3.46484 272.127 2.92969C272.311 2.39062 272.576 1.92578 272.924 1.53516C273.275 1.14453 273.705 0.84375 274.213 0.632812C274.725 0.417969 275.311 0.310547 275.971 0.310547C276.404 0.310547 276.822 0.353516 277.225 0.439453C277.627 0.525391 277.99 0.648438 278.314 0.808594L277.916 1.65234C277.643 1.52734 277.342 1.41992 277.014 1.33008C276.689 1.23633 276.338 1.18945 275.959 1.18945ZM279.855 9V0.433594H280.852V8.10938H284.654V9H279.855ZM292.904 1.18945C292.432 1.18945 292.006 1.27148 291.627 1.43555C291.252 1.5957 290.932 1.83008 290.666 2.13867C290.404 2.44336 290.203 2.8125 290.062 3.24609C289.922 3.67969 289.852 4.16797 289.852 4.71094C289.852 5.42969 289.963 6.05469 290.186 6.58594C290.412 7.11328 290.748 7.52148 291.193 7.81055C291.643 8.09961 292.203 8.24414 292.875 8.24414C293.258 8.24414 293.617 8.21289 293.953 8.15039C294.293 8.08398 294.623 8.00195 294.943 7.9043V8.77148C294.631 8.88867 294.303 8.97461 293.959 9.0293C293.615 9.08789 293.207 9.11719 292.734 9.11719C291.863 9.11719 291.135 8.9375 290.549 8.57812C289.967 8.21484 289.529 7.70312 289.236 7.04297C288.947 6.38281 288.803 5.60352 288.803 4.70508C288.803 4.05664 288.893 3.46484 289.072 2.92969C289.256 2.39062 289.521 1.92578 289.869 1.53516C290.221 1.14453 290.65 0.84375 291.158 0.632812C291.67 0.417969 292.256 0.310547 292.916 0.310547C293.35 0.310547 293.768 0.353516 294.17 0.439453C294.572 0.525391 294.936 0.648438 295.26 0.808594L294.861 1.65234C294.588 1.52734 294.287 1.41992 293.959 1.33008C293.635 1.23633 293.283 1.18945 292.904 1.18945ZM296.801 9V0.433594H297.797V8.10938H301.6V9H296.801ZM309.85 1.18945C309.377 1.18945 308.951 1.27148 308.572 1.43555C308.197 1.5957 307.877 1.83008 307.611 2.13867C307.35 2.44336 307.148 2.8125 307.008 3.24609C306.867 3.67969 306.797 4.16797 306.797 4.71094C306.797 5.42969 306.908 6.05469 307.131 6.58594C307.357 7.11328 307.693 7.52148 308.139 7.81055C308.588 8.09961 309.148 8.24414 309.82 8.24414C310.203 8.24414 310.562 8.21289 310.898 8.15039C311.238 8.08398 311.568 8.00195 311.889 7.9043V8.77148C311.576 8.88867 311.248 8.97461 310.904 9.0293C310.561 9.08789 310.152 9.11719 309.68 9.11719C308.809 9.11719 308.08 8.9375 307.494 8.57812C306.912 8.21484 306.475 7.70312 306.182 7.04297C305.893 6.38281 305.748 5.60352 305.748 4.70508C305.748 4.05664 305.838 3.46484 306.018 2.92969C306.201 2.39062 306.467 1.92578 306.814 1.53516C307.166 1.14453 307.596 0.84375 308.104 0.632812C308.615 0.417969 309.201 0.310547 309.861 0.310547C310.295 0.310547 310.713 0.353516 311.115 0.439453C311.518 0.525391 311.881 0.648438 312.205 0.808594L311.807 1.65234C311.533 1.52734 311.232 1.41992 310.904 1.33008C310.58 1.23633 310.229 1.18945 309.85 1.18945ZM313.746 9V0.433594H314.742V8.10938H318.545V9H313.746ZM4.83398 17.1895C4.36133 17.1895 3.93555 17.2715 3.55664 17.4355C3.18164 17.5957 2.86133 17.8301 2.5957 18.1387C2.33398 18.4434 2.13281 18.8125 1.99219 19.2461C1.85156 19.6797 1.78125 20.168 1.78125 20.7109C1.78125 21.4297 1.89258 22.0547 2.11523 22.5859C2.3418 23.1133 2.67773 23.5215 3.12305 23.8105C3.57227 24.0996 4.13281 24.2441 4.80469 24.2441C5.1875 24.2441 5.54688 24.2129 5.88281 24.1504C6.22266 24.084 6.55273 24.002 6.87305 23.9043V24.7715C6.56055 24.8887 6.23242 24.9746 5.88867 25.0293C5.54492 25.0879 5.13672 25.1172 4.66406 25.1172C3.79297 25.1172 3.06445 24.9375 2.47852 24.5781C1.89648 24.2148 1.45898 23.7031 1.16602 23.043C0.876953 22.3828 0.732422 21.6035 0.732422 20.7051C0.732422 20.0566 0.822266 19.4648 1.00195 18.9297C1.18555 18.3906 1.45117 17.9258 1.79883 17.5352C2.15039 17.1445 2.58008 16.8438 3.08789 16.6328C3.59961 16.418 4.18555 16.3105 4.8457 16.3105C5.2793 16.3105 5.69727 16.3535 6.09961 16.4395C6.50195 16.5254 6.86523 16.6484 7.18945 16.8086L6.79102 17.6523C6.51758 17.5273 6.2168 17.4199 5.88867 17.3301C5.56445 17.2363 5.21289 17.1895 4.83398 17.1895ZM8.73047 25V16.4336H9.72656V24.1094H13.5293V25H8.73047ZM21.7793 17.1895C21.3066 17.1895 20.8809 17.2715 20.502 17.4355C20.127 17.5957 19.8066 17.8301 19.541 18.1387C19.2793 18.4434 19.0781 18.8125 18.9375 19.2461C18.7969 19.6797 18.7266 20.168 18.7266 20.7109C18.7266 21.4297 18.8379 22.0547 19.0605 22.5859C19.2871 23.1133 19.623 23.5215 20.0684 23.8105C20.5176 24.0996 21.0781 24.2441 21.75 24.2441C22.1328 24.2441 22.4922 24.2129 22.8281 24.1504C23.168 24.084 23.498 24.002 23.8184 23.9043V24.7715C23.5059 24.8887 23.1777 24.9746 22.834 25.0293C22.4902 25.0879 22.082 25.1172 21.6094 25.1172C20.7383 25.1172 20.0098 24.9375 19.4238 24.5781C18.8418 24.2148 18.4043 23.7031 18.1113 23.043C17.8223 22.3828 17.6777 21.6035 17.6777 20.7051C17.6777 20.0566 17.7676 19.4648 17.9473 18.9297C18.1309 18.3906 18.3965 17.9258 18.7441 17.5352C19.0957 17.1445 19.5254 16.8438 20.0332 16.6328C20.5449 16.418 21.1309 16.3105 21.791 16.3105C22.2246 16.3105 22.6426 16.3535 23.0449 16.4395C23.4473 16.5254 23.8105 16.6484 24.1348 16.8086L23.7363 17.6523C23.4629 17.5273 23.1621 17.4199 22.834 17.3301C22.5098 17.2363 22.1582 17.1895 21.7793 17.1895ZM25.6758 25V16.4336H26.6719V24.1094H30.4746V25H25.6758ZM38.7246 17.1895C38.252 17.1895 37.8262 17.2715 37.4473 17.4355C37.0723 17.5957 36.752 17.8301 36.4863 18.1387C36.2246 18.4434 36.0234 18.8125 35.8828 19.2461C35.7422 19.6797 35.6719 20.168 35.6719 20.7109C35.6719 21.4297 35.7832 22.0547 36.0059 22.5859C36.2324 23.1133 36.5684 23.5215 37.0137 23.8105C37.4629 24.0996 38.0234 24.2441 38.6953 24.2441C39.0781 24.2441 39.4375 24.2129 39.7734 24.1504C40.1133 24.084 40.4434 24.002 40.7637 23.9043V24.7715C40.4512 24.8887 40.123 24.9746 39.7793 25.0293C39.4355 25.0879 39.0273 25.1172 38.5547 25.1172C37.6836 25.1172 36.9551 24.9375 36.3691 24.5781C35.7871 24.2148 35.3496 23.7031 35.0566 23.043C34.7676 22.3828 34.623 21.6035 34.623 20.7051C34.623 20.0566 34.7129 19.4648 34.8926 18.9297C35.0762 18.3906 35.3418 17.9258 35.6895 17.5352C36.041 17.1445 36.4707 16.8438 36.9785 16.6328C37.4902 16.418 38.0762 16.3105 38.7363 16.3105C39.1699 16.3105 39.5879 16.3535 39.9902 16.4395C40.3926 16.5254 40.7559 16.6484 41.0801 16.8086L40.6816 17.6523C40.4082 17.5273 40.1074 17.4199 39.7793 17.3301C39.4551 17.2363 39.1035 17.1895 38.7246 17.1895ZM42.6211 25V16.4336H43.6172V24.1094H47.4199V25H42.6211ZM55.6699 17.1895C55.1973 17.1895 54.7715 17.2715 54.3926 17.4355C54.0176 17.5957 53.6973 17.8301 53.4316 18.1387C53.1699 18.4434 52.9688 18.8125 52.8281 19.2461C52.6875 19.6797 52.6172 20.168 52.6172 20.7109C52.6172 21.4297 52.7285 22.0547 52.9512 22.5859C53.1777 23.1133 53.5137 23.5215 53.959 23.8105C54.4082 24.0996 54.9688 24.2441 55.6406 24.2441C56.0234 24.2441 56.3828 24.2129 56.7188 24.1504C57.0586 24.084 57.3887 24.002 57.709 23.9043V24.7715C57.3965 24.8887 57.0684 24.9746 56.7246 25.0293C56.3809 25.0879 55.9727 25.1172 55.5 25.1172C54.6289 25.1172 53.9004 24.9375 53.3145 24.5781C52.7324 24.2148 52.2949 23.7031 52.002 23.043C51.7129 22.3828 51.5684 21.6035 51.5684 20.7051C51.5684 20.0566 51.6582 19.4648 51.8379 18.9297C52.0215 18.3906 52.2871 17.9258 52.6348 17.5352C52.9863 17.1445 53.416 16.8438 53.9238 16.6328C54.4355 16.418 55.0215 16.3105 55.6816 16.3105C56.1152 16.3105 56.5332 16.3535 56.9355 16.4395C57.3379 16.5254 57.7012 16.6484 58.0254 16.8086L57.627 17.6523C57.3535 17.5273 57.0527 17.4199 56.7246 17.3301C56.4004 17.2363 56.0488 17.1895 55.6699 17.1895ZM59.5664 25V16.4336H60.5625V24.1094H64.3652V25H59.5664ZM72.6152 17.1895C72.1426 17.1895 71.7168 17.2715 71.3379 17.4355C70.9629 17.5957 70.6426 17.8301 70.377 18.1387C70.1152 18.4434 69.9141 18.8125 69.7734 19.2461C69.6328 19.6797 69.5625 20.168 69.5625 20.7109C69.5625 21.4297 69.6738 22.0547 69.8965 22.5859C70.123 23.1133 70.459 23.5215 70.9043 23.8105C71.3535 24.0996 71.9141 24.2441 72.5859 24.2441C72.9688 24.2441 73.3281 24.2129 73.6641 24.1504C74.0039 24.084 74.334 24.002 74.6543 23.9043V24.7715C74.3418 24.8887 74.0137 24.9746 73.6699 25.0293C73.3262 25.0879 72.918 25.1172 72.4453 25.1172C71.5742 25.1172 70.8457 24.9375 70.2598 24.5781C69.6777 24.2148 69.2402 23.7031 68.9473 23.043C68.6582 22.3828 68.5137 21.6035 68.5137 20.7051C68.5137 20.0566 68.6035 19.4648 68.7832 18.9297C68.9668 18.3906 69.2324 17.9258 69.5801 17.5352C69.9316 17.1445 70.3613 16.8438 70.8691 16.6328C71.3809 16.418 71.9668 16.3105 72.627 16.3105C73.0605 16.3105 73.4785 16.3535 73.8809 16.4395C74.2832 16.5254 74.6465 16.6484 74.9707 16.8086L74.5723 17.6523C74.2988 17.5273 73.998 17.4199 73.6699 17.3301C73.3457 17.2363 72.9941 17.1895 72.6152 17.1895ZM76.5117 25V16.4336H77.5078V24.1094H81.3105V25H76.5117ZM89.5605 17.1895C89.0879 17.1895 88.6621 17.2715 88.2832 17.4355C87.9082 17.5957 87.5879 17.8301 87.3223 18.1387C87.0605 18.4434 86.8594 18.8125 86.7188 19.2461C86.5781 19.6797 86.5078 20.168 86.5078 20.7109C86.5078 21.4297 86.6191 22.0547 86.8418 22.5859C87.0684 23.1133 87.4043 23.5215 87.8496 23.8105C88.2988 24.0996 88.8594 24.2441 89.5312 24.2441C89.9141 24.2441 90.2734 24.2129 90.6094 24.1504C90.9492 24.084 91.2793 24.002 91.5996 23.9043V24.7715C91.2871 24.8887 90.959 24.9746 90.6152 25.0293C90.2715 25.0879 89.8633 25.1172 89.3906 25.1172C88.5195 25.1172 87.791 24.9375 87.2051 24.5781C86.623 24.2148 86.1855 23.7031 85.8926 23.043C85.6035 22.3828 85.459 21.6035 85.459 20.7051C85.459 20.0566 85.5488 19.4648 85.7285 18.9297C85.9121 18.3906 86.1777 17.9258 86.5254 17.5352C86.877 17.1445 87.3066 16.8438 87.8145 16.6328C88.3262 16.418 88.9121 16.3105 89.5723 16.3105C90.0059 16.3105 90.4238 16.3535 90.8262 16.4395C91.2285 16.5254 91.5918 16.6484 91.916 16.8086L91.5176 17.6523C91.2441 17.5273 90.9434 17.4199 90.6152 17.3301C90.291 17.2363 89.9395 17.1895 89.5605 17.1895ZM93.457 25V16.4336H94.4531V24.1094H98.2559V25H93.457ZM106.506 17.1895C106.033 17.1895 105.607 17.2715 105.229 17.4355C104.854 17.5957 104.533 17.8301 104.268 18.1387C104.006 18.4434 103.805 18.8125 103.664 19.2461C103.523 19.6797 103.453 20.168 103.453 20.7109C103.453 21.4297 103.564 22.0547 103.787 22.5859C104.014 23.1133 104.35 23.5215 104.795 23.8105C105.244 24.0996 105.805 24.2441 106.477 24.2441C106.859 24.2441 107.219 24.2129 107.555 24.1504C107.895 24.084 108.225 24.002 108.545 23.9043V24.7715C108.232 24.8887 107.904 24.9746 107.561 25.0293C107.217 25.0879 106.809 25.1172 106.336 25.1172C105.465 25.1172 104.736 24.9375 104.15 24.5781C103.568 24.2148 103.131 23.7031 102.838 23.043C102.549 22.3828 102.404 21.6035 102.404 20.7051C102.404 20.0566 102.494 19.4648 102.674 18.9297C102.857 18.3906 103.123 17.9258 103.471 17.5352C103.822 17.1445 104.252 16.8438 104.76 16.6328C105.271 16.418 105.857 16.3105 106.518 16.3105C106.951 16.3105 107.369 16.3535 107.771 16.4395C108.174 16.5254 108.537 16.6484 108.861 16.8086L108.463 17.6523C108.189 17.5273 107.889 17.4199 107.561 17.3301C107.236 17.2363 106.885 17.1895 106.506 17.1895ZM110.402 25V16.4336H111.398V24.1094H115.201V25H110.402ZM123.451 17.1895C122.979 17.1895 122.553 17.2715 122.174 17.4355C121.799 17.5957 121.479 17.8301 121.213 18.1387C120.951 18.4434 120.75 18.8125 120.609 19.2461C120.469 19.6797 120.398 20.168 120.398 20.7109C120.398 21.4297 120.51 22.0547 120.732 22.5859C120.959 23.1133 121.295 23.5215 121.74 23.8105C122.189 24.0996 122.75 24.2441 123.422 24.2441C123.805 24.2441 124.164 24.2129 124.5 24.1504C124.84 24.084 125.17 24.002 125.49 23.9043V24.7715C125.178 24.8887 124.85 24.9746 124.506 25.0293C124.162 25.0879 123.754 25.1172 123.281 25.1172C122.41 25.1172 121.682 24.9375 121.096 24.5781C120.514 24.2148 120.076 23.7031 119.783 23.043C119.494 22.3828 119.35 21.6035 119.35 20.7051C119.35 20.0566 119.439 19.4648 119.619 18.9297C119.803 18.3906 120.068 17.9258 120.416 17.5352C120.768 17.1445 121.197 16.8438 121.705 16.6328C122.217 16.418 122.803 16.3105 123.463 16.3105C123.896 16.3105 124.314 16.3535 124.717 16.4395C125.119 16.5254 125.482 16.6484 125.807 16.8086L125.408 17.6523C125.135 17.5273 124.834 17.4199 124.506 17.3301C124.182 17.2363 123.83 17.1895 123.451 17.1895ZM127.348 25V16.4336H128.344V24.1094H132.146V25H127.348ZM140.396 17.1895C139.924 17.1895 139.498 17.2715 139.119 17.4355C138.744 17.5957 138.424 17.8301 138.158 18.1387C137.896 18.4434 137.695 18.8125 137.555 19.2461C137.414 19.6797 137.344 20.168 137.344 20.7109C137.344 21.4297 137.455 22.0547 137.678 22.5859C137.904 23.1133 138.24 23.5215 138.686 23.8105C139.135 24.0996 139.695 24.2441 140.367 24.2441C140.75 24.2441 141.109 24.2129 141.445 24.1504C141.785 24.084 142.115 24.002 142.436 23.9043V24.7715C142.123 24.8887 141.795 24.9746 141.451 25.0293C141.107 25.0879 140.699 25.1172 140.227 25.1172C139.355 25.1172 138.627 24.9375 138.041 24.5781C137.459 24.2148 137.021 23.7031 136.729 23.043C136.439 22.3828 136.295 21.6035 136.295 20.7051C136.295 20.0566 136.385 19.4648 136.564 18.9297C136.748 18.3906 137.014 17.9258 137.361 17.5352C137.713 17.1445 138.143 16.8438 138.65 16.6328C139.162 16.418 139.748 16.3105 140.408 16.3105C140.842 16.3105 141.26 16.3535 141.662 16.4395C142.064 16.5254 142.428 16.6484 142.752 16.8086L142.354 17.6523C142.08 17.5273 141.779 17.4199 141.451 17.3301C141.127 17.2363 140.775 17.1895 140.396 17.1895ZM144.293 25V16.4336H145.289V24.1094H149.092V25H144.293ZM157.342 17.1895C156.869 17.1895 156.443 17.2715 156.064 17.4355C155.689 17.5957 155.369 17.8301 155.104 18.1387C154.842 18.4434 154.641 18.8125 154.5 19.2461C154.359 19.6797 154.289 20.168 154.289 20.7109C154.289 21.4297 154.4 22.0547 154.623 22.5859C154.85 23.1133 155.186 23.5215 155.631 23.8105C156.08 24.0996 156.641 24.2441 157.312 24.2441C157.695 24.2441 158.055 24.2129 158.391 24.1504C158.73 24.084 159.061 24.002 159.381 23.9043V24.7715C159.068 24.8887 158.74 24.9746 158.396 25.0293C158.053 25.0879 157.645 25.1172 157.172 25.1172C156.301 25.1172 155.572 24.9375 154.986 24.5781C154.404 24.2148 153.967 23.7031 153.674 23.043C153.385 22.3828 153.24 21.6035 153.24 20.7051C153.24 20.0566 153.33 19.4648 153.51 18.9297C153.693 18.3906 153.959 17.9258 154.307 17.5352C154.658 17.1445 155.088 16.8438 155.596 16.6328C156.107 16.418 156.693 16.3105 157.354 16.3105C157.787 16.3105 158.205 16.3535 158.607 16.4395C159.01 16.5254 159.373 16.6484 159.697 16.8086L159.299 17.6523C159.025 17.5273 158.725 17.4199 158.396 17.3301C158.072 17.2363 157.721 17.1895 157.342 17.1895ZM161.238 25V16.4336H162.234V24.1094H166.037V25H161.238ZM174.287 17.1895C173.814 17.1895 173.389 17.2715 173.01 17.4355C172.635 17.5957 172.314 17.8301 172.049 18.1387C171.787 18.4434 171.586 18.8125 171.445 19.2461C171.305 19.6797 171.234 20.168 171.234 20.7109C171.234 21.4297 171.346 22.0547 171.568 22.5859C171.795 23.1133 172.131 23.5215 172.576 23.8105C173.025 24.0996 173.586 24.2441 174.258 24.2441C174.641 24.2441 175 24.2129 175.336 24.1504C175.676 24.084 176.006 24.002 176.326 23.9043V24.7715C176.014 24.8887 175.686 24.9746 175.342 25.0293C174.998 25.0879 174.59 25.1172 174.117 25.1172C173.246 25.1172 172.518 24.9375 171.932 24.5781C171.35 24.2148 170.912 23.7031 170.619 23.043C170.33 22.3828 170.186 21.6035 170.186 20.7051C170.186 20.0566 170.275 19.4648 170.455 18.9297C170.639 18.3906 170.904 17.9258 171.252 17.5352C171.604 17.1445 172.033 16.8438 172.541 16.6328C173.053 16.418 173.639 16.3105 174.299 16.3105C174.732 16.3105 175.15 16.3535 175.553 16.4395C175.955 16.5254 176.318 16.6484 176.643 16.8086L176.244 17.6523C175.971 17.5273 175.67 17.4199 175.342 17.3301C175.018 17.2363 174.666 17.1895 174.287 17.1895ZM178.184 25V16.4336H179.18V24.1094H182.982V25H178.184ZM191.232 17.1895C190.76 17.1895 190.334 17.2715 189.955 17.4355C189.58 17.5957 189.26 17.8301 188.994 18.1387C188.732 18.4434 188.531 18.8125 188.391 19.2461C188.25 19.6797 188.18 20.168 188.18 20.7109C188.18 21.4297 188.291 22.0547 188.514 22.5859C188.74 23.1133 189.076 23.5215 189.521 23.8105C189.971 24.0996 190.531 24.2441 191.203 24.2441C191.586 24.2441 191.945 24.2129 192.281 24.1504C192.621 24.084 192.951 24.002 193.271 23.9043V24.7715C192.959 24.8887 192.631 24.9746 192.287 25.0293C191.943 25.0879 191.535 25.1172 191.062 25.1172C190.191 25.1172 189.463 24.9375 188.877 24.5781C188.295 24.2148 187.857 23.7031 187.564 23.043C187.275 22.3828 187.131 21.6035 187.131 20.7051C187.131 20.0566 187.221 19.4648 187.4 18.9297C187.584 18.3906 187.85 17.9258 188.197 17.5352C188.549 17.1445 188.979 16.8438 189.486 16.6328C189.998 16.418 190.584 16.3105 191.244 16.3105C191.678 16.3105 192.096 16.3535 192.498 16.4395C192.9 16.5254 193.264 16.6484 193.588 16.8086L193.189 17.6523C192.916 17.5273 192.615 17.4199 192.287 17.3301C191.963 17.2363 191.611 17.1895 191.232 17.1895ZM195.129 25V16.4336H196.125V24.1094H199.928V25H195.129ZM208.178 17.1895C207.705 17.1895 207.279 17.2715 206.9 17.4355C206.525 17.5957 206.205 17.8301 205.939 18.1387C205.678 18.4434 205.477 18.8125 205.336 19.2461C205.195 19.6797 205.125 20.168 205.125 20.7109C205.125 21.4297 205.236 22.0547 205.459 22.5859C205.686 23.1133 206.021 23.5215 206.467 23.8105C206.916 24.0996 207.477 24.2441 208.148 24.2441C208.531 24.2441 208.891 24.2129 209.227 24.1504C209.566 24.084 209.896 24.002 210.217 23.9043V24.7715C209.904 24.8887 209.576 24.9746 209.232 25.0293C208.889 25.0879 208.48 25.1172 208.008 25.1172C207.137 25.1172 206.408 24.9375 205.822 24.5781C205.24 24.2148 204.803 23.7031 204.51 23.043C204.221 22.3828 204.076 21.6035 204.076 20.7051C204.076 20.0566 204.166 19.4648 204.346 18.9297C204.529 18.3906 204.795 17.9258 205.143 17.5352C205.494 17.1445 205.924 16.8438 206.432 16.6328C206.943 16.418 207.529 16.3105 208.189 16.3105C208.623 16.3105 209.041 16.3535 209.443 16.4395C209.846 16.5254 210.209 16.6484 210.533 16.8086L210.135 17.6523C209.861 17.5273 209.561 17.4199 209.232 17.3301C208.908 17.2363 208.557 17.1895 208.178 17.1895ZM212.074 25V16.4336H213.07V24.1094H216.873V25H212.074ZM225.123 17.1895C224.65 17.1895 224.225 17.2715 223.846 17.4355C223.471 17.5957 223.15 17.8301 222.885 18.1387C222.623 18.4434 222.422 18.8125 222.281 19.2461C222.141 19.6797 222.07 20.168 222.07 20.7109C222.07 21.4297 222.182 22.0547 222.404 22.5859C222.631 23.1133 222.967 23.5215 223.412 23.8105C223.861 24.0996 224.422 24.2441 225.094 24.2441C225.477 24.2441 225.836 24.2129 226.172 24.1504C226.512 24.084 226.842 24.002 227.162 23.9043V24.7715C226.85 24.8887 226.521 24.9746 226.178 25.0293C225.834 25.0879 225.426 25.1172 224.953 25.1172C224.082 25.1172 223.354 24.9375 222.768 24.5781C222.186 24.2148 221.748 23.7031 221.455 23.043C221.166 22.3828 221.021 21.6035 221.021 20.7051C221.021 20.0566 221.111 19.4648 221.291 18.9297C221.475 18.3906 221.74 17.9258 222.088 17.5352C222.439 17.1445 222.869 16.8438 223.377 16.6328C223.889 16.418 224.475 16.3105 225.135 16.3105C225.568 16.3105 225.986 16.3535 226.389 16.4395C226.791 16.5254 227.154 16.6484 227.479 16.8086L227.08 17.6523C226.807 17.5273 226.506 17.4199 226.178 17.3301C225.854 17.2363 225.502 17.1895 225.123 17.1895ZM229.02 25V16.4336H230.016V24.1094H233.818V25H229.02ZM242.068 17.1895C241.596 17.1895 241.17 17.2715 240.791 17.4355C240.416 17.5957 240.096 17.8301 239.83 18.1387C239.568 18.4434 239.367 18.8125 239.227 19.2461C239.086 19.6797 239.016 20.168 239.016 20.7109C239.016 21.4297 239.127 22.0547 239.35 22.5859C239.576 23.1133 239.912 23.5215 240.357 23.8105C240.807 24.0996 241.367 24.2441 242.039 24.2441C242.422 24.2441 242.781 24.2129 243.117 24.1504C243.457 24.084 243.787 24.002 244.107 23.9043V24.7715C243.795 24.8887 243.467 24.9746 243.123 25.0293C242.779 25.0879 242.371 25.1172 241.898 25.1172C241.027 25.1172 240.299 24.9375 239.713 24.5781C239.131 24.2148 238.693 23.7031 238.4 23.043C238.111 22.3828 237.967 21.6035 237.967 20.7051C237.967 20.0566 238.057 19.4648 238.236 18.9297C238.42 18.3906 238.686 17.9258 239.033 17.5352C239.385 17.1445 239.814 16.8438 240.322 16.6328C240.834 16.418 241.42 16.3105 242.08 16.3105C242.514 16.3105 242.932 16.3535 243.334 16.4395C243.736 16.5254 244.1 16.6484 244.424 16.8086L244.025 17.6523C243.752 17.5273 243.451 17.4199 243.123 17.3301C242.799 17.2363 242.447 17.1895 242.068 17.1895ZM245.965 25V16.4336H246.961V24.1094H250.764V25H245.965ZM259.014 17.1895C258.541 17.1895 258.115 17.2715 257.736 17.4355C257.361 17.5957 257.041 17.8301 256.775 18.1387C256.514 18.4434 256.312 18.8125 256.172 19.2461C256.031 19.6797 255.961 20.168 255.961 20.7109C255.961 21.4297 256.072 22.0547 256.295 22.5859C256.521 23.1133 256.857 23.5215 257.303 23.8105C257.752 24.0996 258.312 24.2441 258.984 24.2441C259.367 24.2441 259.727 24.2129 260.062 24.1504C260.402 24.084 260.732 24.002 261.053 23.9043V24.7715C260.74 24.8887 260.412 24.9746 260.068 25.0293C259.725 25.0879 259.316 25.1172 258.844 25.1172C257.973 25.1172 257.244 24.9375 256.658 24.5781C256.076 24.2148 255.639 23.7031 255.346 23.043C255.057 22.3828 254.912 21.6035 254.912 20.7051C254.912 20.0566 255.002 19.4648 255.182 18.9297C255.365 18.3906 255.631 17.9258 255.979 17.5352C256.33 17.1445 256.76 16.8438 257.268 16.6328C257.779 16.418 258.365 16.3105 259.025 16.3105C259.459 16.3105 259.877 16.3535 260.279 16.4395C260.682 16.5254 261.045 16.6484 261.369 16.8086L260.971 17.6523C260.697 17.5273 260.396 17.4199 260.068 17.3301C259.744 17.2363 259.393 17.1895 259.014 17.1895ZM262.91 25V16.4336H263.906V24.1094H267.709V25H262.91ZM275.959 17.1895C275.486 17.1895 275.061 17.2715 274.682 17.4355C274.307 17.5957 273.986 17.8301 273.721 18.1387C273.459 18.4434 273.258 18.8125 273.117 19.2461C272.977 19.6797 272.906 20.168 272.906 20.7109C272.906 21.4297 273.018 22.0547 273.24 22.5859C273.467 23.1133 273.803 23.5215 274.248 23.8105C274.697 24.0996 275.258 24.2441 275.93 24.2441C276.312 24.2441 276.672 24.2129 277.008 24.1504C277.348 24.084 277.678 24.002 277.998 23.9043V24.7715C277.686 24.8887 277.357 24.9746 277.014 25.0293C276.67 25.0879 276.262 25.1172 275.789 25.1172C274.918 25.1172 274.189 24.9375 273.604 24.5781C273.021 24.2148 272.584 23.7031 272.291 23.043C272.002 22.3828 271.857 21.6035 271.857 20.7051C271.857 20.0566 271.947 19.4648 272.127 18.9297C272.311 18.3906 272.576 17.9258 272.924 17.5352C273.275 17.1445 273.705 16.8438 274.213 16.6328C274.725 16.418 275.311 16.3105 275.971 16.3105C276.404 16.3105 276.822 16.3535 277.225 16.4395C277.627 16.5254 277.99 16.6484 278.314 16.8086L277.916 17.6523C277.643 17.5273 277.342 17.4199 277.014 17.3301C276.689 17.2363 276.338 17.1895 275.959 17.1895ZM279.855 25V16.4336H280.852V24.1094H284.654V25H279.855ZM292.904 17.1895C292.432 17.1895 292.006 17.2715 291.627 17.4355C291.252 17.5957 290.932 17.8301 290.666 18.1387C290.404 18.4434 290.203 18.8125 290.062 19.2461C289.922 19.6797 289.852 20.168 289.852 20.7109C289.852 21.4297 289.963 22.0547 290.186 22.5859C290.412 23.1133 290.748 23.5215 291.193 23.8105C291.643 24.0996 292.203 24.2441 292.875 24.2441C293.258 24.2441 293.617 24.2129 293.953 24.1504C294.293 24.084 294.623 24.002 294.943 23.9043V24.7715C294.631 24.8887 294.303 24.9746 293.959 25.0293C293.615 25.0879 293.207 25.1172 292.734 25.1172C291.863 25.1172 291.135 24.9375 290.549 24.5781C289.967 24.2148 289.529 23.7031 289.236 23.043C288.947 22.3828 288.803 21.6035 288.803 20.7051C288.803 20.0566 288.893 19.4648 289.072 18.9297C289.256 18.3906 289.521 17.9258 289.869 17.5352C290.221 17.1445 290.65 16.8438 291.158 16.6328C291.67 16.418 292.256 16.3105 292.916 16.3105C293.35 16.3105 293.768 16.3535 294.17 16.4395C294.572 16.5254 294.936 16.6484 295.26 16.8086L294.861 17.6523C294.588 17.5273 294.287 17.4199 293.959 17.3301C293.635 17.2363 293.283 17.1895 292.904 17.1895ZM296.801 25V16.4336H297.797V24.1094H301.6V25H296.801ZM309.85 17.1895C309.377 17.1895 308.951 17.2715 308.572 17.4355C308.197 17.5957 307.877 17.8301 307.611 18.1387C307.35 18.4434 307.148 18.8125 307.008 19.2461C306.867 19.6797 306.797 20.168 306.797 20.7109C306.797 21.4297 306.908 22.0547 307.131 22.5859C307.357 23.1133 307.693 23.5215 308.139 23.8105C308.588 24.0996 309.148 24.2441 309.82 24.2441C310.203 24.2441 310.562 24.2129 310.898 24.1504C311.238 24.084 311.568 24.002 311.889 23.9043V24.7715C311.576 24.8887 311.248 24.9746 310.904 25.0293C310.561 25.0879 310.152 25.1172 309.68 25.1172C308.809 25.1172 308.08 24.9375 307.494 24.5781C306.912 24.2148 306.475 23.7031 306.182 23.043C305.893 22.3828 305.748 21.6035 305.748 20.7051C305.748 20.0566 305.838 19.4648 306.018 18.9297C306.201 18.3906 306.467 17.9258 306.814 17.5352C307.166 17.1445 307.596 16.8438 308.104 16.6328C308.615 16.418 309.201 16.3105 309.861 16.3105C310.295 16.3105 310.713 16.3535 311.115 16.4395C311.518 16.5254 311.881 16.6484 312.205 16.8086L311.807 17.6523C311.533 17.5273 311.232 17.4199 310.904 17.3301C310.58 17.2363 310.229 17.1895 309.85 17.1895ZM313.746 25V16.4336H314.742V24.1094H318.545V25H313.746ZM4.83398 33.1895C4.36133 33.1895 3.93555 33.2715 3.55664 33.4355C3.18164 33.5957 2.86133 33.8301 2.5957 34.1387C2.33398 34.4434 2.13281 34.8125 1.99219 35.2461C1.85156 35.6797 1.78125 36.168 1.78125 36.7109C1.78125 37.4297 1.89258 38.0547 2.11523 38.5859C2.3418 39.1133 2.67773 39.5215 3.12305 39.8105C3.57227 40.0996 4.13281 40.2441 4.80469 40.2441C5.1875 40.2441 5.54688 40.2129 5.88281 40.1504C6.22266 40.084 6.55273 40.002 6.87305 39.9043V40.7715C6.56055 40.8887 6.23242 40.9746 5.88867 41.0293C5.54492 41.0879 5.13672 41.1172 4.66406 41.1172C3.79297 41.1172 3.06445 40.9375 2.47852 40.5781C1.89648 40.2148 1.45898 39.7031 1.16602 39.043C0.876953 38.3828 0.732422 37.6035 0.732422 36.7051C0.732422 36.0566 0.822266 35.4648 1.00195 34.9297C1.18555 34.3906 1.45117 33.9258 1.79883 33.5352C2.15039 33.1445 2.58008 32.8438 3.08789 32.6328C3.59961 32.418 4.18555 32.3105 4.8457 32.3105C5.2793 32.3105 5.69727 32.3535 6.09961 32.4395C6.50195 32.5254 6.86523 32.6484 7.18945 32.8086L6.79102 33.6523C6.51758 33.5273 6.2168 33.4199 5.88867 33.3301C5.56445 33.2363 5.21289 33.1895 4.83398 33.1895ZM8.73047 41V32.4336H9.72656V40.1094H13.5293V41H8.73047ZM21.7793 33.1895C21.3066 33.1895 20.8809 33.2715 20.502 33.4355C20.127 33.5957 19.8066 33.8301 19.541 34.1387C19.2793 34.4434 19.0781 34.8125 18.9375 35.2461C18.7969 35.6797 18.7266 36.168 18.7266 36.7109C18.7266 37.4297 18.8379 38.0547 19.0605 38.5859C19.2871 39.1133 19.623 39.5215 20.0684 39.8105C20.5176 40.0996 21.0781 40.2441 21.75 40.2441C22.1328 40.2441 22.4922 40.2129 22.8281 40.1504C23.168 40.084 23.498 40.002 23.8184 39.9043V40.7715C23.5059 40.8887 23.1777 40.9746 22.834 41.0293C22.4902 41.0879 22.082 41.1172 21.6094 41.1172C20.7383 41.1172 20.0098 40.9375 19.4238 40.5781C18.8418 40.2148 18.4043 39.7031 18.1113 39.043C17.8223 38.3828 17.6777 37.6035 17.6777 36.7051C17.6777 36.0566 17.7676 35.4648 17.9473 34.9297C18.1309 34.3906 18.3965 33.9258 18.7441 33.5352C19.0957 33.1445 19.5254 32.8438 20.0332 32.6328C20.5449 32.418 21.1309 32.3105 21.791 32.3105C22.2246 32.3105 22.6426 32.3535 23.0449 32.4395C23.4473 32.5254 23.8105 32.6484 24.1348 32.8086L23.7363 33.6523C23.4629 33.5273 23.1621 33.4199 22.834 33.3301C22.5098 33.2363 22.1582 33.1895 21.7793 33.1895ZM25.6758 41V32.4336H26.6719V40.1094H30.4746V41H25.6758ZM38.7246 33.1895C38.252 33.1895 37.8262 33.2715 37.4473 33.4355C37.0723 33.5957 36.752 33.8301 36.4863 34.1387C36.2246 34.4434 36.0234 34.8125 35.8828 35.2461C35.7422 35.6797 35.6719 36.168 35.6719 36.7109C35.6719 37.4297 35.7832 38.0547 36.0059 38.5859C36.2324 39.1133 36.5684 39.5215 37.0137 39.8105C37.4629 40.0996 38.0234 40.2441 38.6953 40.2441C39.0781 40.2441 39.4375 40.2129 39.7734 40.1504C40.1133 40.084 40.4434 40.002 40.7637 39.9043V40.7715C40.4512 40.8887 40.123 40.9746 39.7793 41.0293C39.4355 41.0879 39.0273 41.1172 38.5547 41.1172C37.6836 41.1172 36.9551 40.9375 36.3691 40.5781C35.7871 40.2148 35.3496 39.7031 35.0566 39.043C34.7676 38.3828 34.623 37.6035 34.623 36.7051C34.623 36.0566 34.7129 35.4648 34.8926 34.9297C35.0762 34.3906 35.3418 33.9258 35.6895 33.5352C36.041 33.1445 36.4707 32.8438 36.9785 32.6328C37.4902 32.418 38.0762 32.3105 38.7363 32.3105C39.1699 32.3105 39.5879 32.3535 39.9902 32.4395C40.3926 32.5254 40.7559 32.6484 41.0801 32.8086L40.6816 33.6523C40.4082 33.5273 40.1074 33.4199 39.7793 33.3301C39.4551 33.2363 39.1035 33.1895 38.7246 33.1895ZM42.6211 41V32.4336H43.6172V40.1094H47.4199V41H42.6211ZM55.6699 33.1895C55.1973 33.1895 54.7715 33.2715 54.3926 33.4355C54.0176 33.5957 53.6973 33.8301 53.4316 34.1387C53.1699 34.4434 52.9688 34.8125 52.8281 35.2461C52.6875 35.6797 52.6172 36.168 52.6172 36.7109C52.6172 37.4297 52.7285 38.0547 52.9512 38.5859C53.1777 39.1133 53.5137 39.5215 53.959 39.8105C54.4082 40.0996 54.9688 40.2441 55.6406 40.2441C56.0234 40.2441 56.3828 40.2129 56.7188 40.1504C57.0586 40.084 57.3887 40.002 57.709 39.9043V40.7715C57.3965 40.8887 57.0684 40.9746 56.7246 41.0293C56.3809 41.0879 55.9727 41.1172 55.5 41.1172C54.6289 41.1172 53.9004 40.9375 53.3145 40.5781C52.7324 40.2148 52.2949 39.7031 52.002 39.043C51.7129 38.3828 51.5684 37.6035 51.5684 36.7051C51.5684 36.0566 51.6582 35.4648 51.8379 34.9297C52.0215 34.3906 52.2871 33.9258 52.6348 33.5352C52.9863 33.1445 53.416 32.8438 53.9238 32.6328C54.4355 32.418 55.0215 32.3105 55.6816 32.3105C56.1152 32.3105 56.5332 32.3535 56.9355 32.4395C57.3379 32.5254 57.7012 32.6484 58.0254 32.8086L57.627 33.6523C57.3535 33.5273 57.0527 33.4199 56.7246 33.3301C56.4004 33.2363 56.0488 33.1895 55.6699 33.1895ZM59.5664 41V32.4336H60.5625V40.1094H64.3652V41H59.5664ZM72.6152 33.1895C72.1426 33.1895 71.7168 33.2715 71.3379 33.4355C70.9629 33.5957 70.6426 33.8301 70.377 34.1387C70.1152 34.4434 69.9141 34.8125 69.7734 35.2461C69.6328 35.6797 69.5625 36.168 69.5625 36.7109C69.5625 37.4297 69.6738 38.0547 69.8965 38.5859C70.123 39.1133 70.459 39.5215 70.9043 39.8105C71.3535 40.0996 71.9141 40.2441 72.5859 40.2441C72.9688 40.2441 73.3281 40.2129 73.6641 40.1504C74.0039 40.084 74.334 40.002 74.6543 39.9043V40.7715C74.3418 40.8887 74.0137 40.9746 73.6699 41.0293C73.3262 41.0879 72.918 41.1172 72.4453 41.1172C71.5742 41.1172 70.8457 40.9375 70.2598 40.5781C69.6777 40.2148 69.2402 39.7031 68.9473 39.043C68.6582 38.3828 68.5137 37.6035 68.5137 36.7051C68.5137 36.0566 68.6035 35.4648 68.7832 34.9297C68.9668 34.3906 69.2324 33.9258 69.5801 33.5352C69.9316 33.1445 70.3613 32.8438 70.8691 32.6328C71.3809 32.418 71.9668 32.3105 72.627 32.3105C73.0605 32.3105 73.4785 32.3535 73.8809 32.4395C74.2832 32.5254 74.6465 32.6484 74.9707 32.8086L74.5723 33.6523C74.2988 33.5273 73.998 33.4199 73.6699 33.3301C73.3457 33.2363 72.9941 33.1895 72.6152 33.1895ZM76.5117 41V32.4336H77.5078V40.1094H81.3105V41H76.5117ZM89.5605 33.1895C89.0879 33.1895 88.6621 33.2715 88.2832 33.4355C87.9082 33.5957 87.5879 33.8301 87.3223 34.1387C87.0605 34.4434 86.8594 34.8125 86.7188 35.2461C86.5781 35.6797 86.5078 36.168 86.5078 36.7109C86.5078 37.4297 86.6191 38.0547 86.8418 38.5859C87.0684 39.1133 87.4043 39.5215 87.8496 39.8105C88.2988 40.0996 88.8594 40.2441 89.5312 40.2441C89.9141 40.2441 90.2734 40.2129 90.6094 40.1504C90.9492 40.084 91.2793 40.002 91.5996 39.9043V40.7715C91.2871 40.8887 90.959 40.9746 90.6152 41.0293C90.2715 41.0879 89.8633 41.1172 89.3906 41.1172C88.5195 41.1172 87.791 40.9375 87.2051 40.5781C86.623 40.2148 86.1855 39.7031 85.8926 39.043C85.6035 38.3828 85.459 37.6035 85.459 36.7051C85.459 36.0566 85.5488 35.4648 85.7285 34.9297C85.9121 34.3906 86.1777 33.9258 86.5254 33.5352C86.877 33.1445 87.3066 32.8438 87.8145 32.6328C88.3262 32.418 88.9121 32.3105 89.5723 32.3105C90.0059 32.3105 90.4238 32.3535 90.8262 32.4395C91.2285 32.5254 91.5918 32.6484 91.916 32.8086L91.5176 33.6523C91.2441 33.5273 90.9434 33.4199 90.6152 33.3301C90.291 33.2363 89.9395 33.1895 89.5605 33.1895ZM93.457 41V32.4336H94.4531V40.1094H98.2559V41H93.457ZM106.506 33.1895C106.033 33.1895 105.607 33.2715 105.229 33.4355C104.854 33.5957 104.533 33.8301 104.268 34.1387C104.006 34.4434 103.805 34.8125 103.664 35.2461C103.523 35.6797 103.453 36.168 103.453 36.7109C103.453 37.4297 103.564 38.0547 103.787 38.5859C104.014 39.1133 104.35 39.5215 104.795 39.8105C105.244 40.0996 105.805 40.2441 106.477 40.2441C106.859 40.2441 107.219 40.2129 107.555 40.1504C107.895 40.084 108.225 40.002 108.545 39.9043V40.7715C108.232 40.8887 107.904 40.9746 107.561 41.0293C107.217 41.0879 106.809 41.1172 106.336 41.1172C105.465 41.1172 104.736 40.9375 104.15 40.5781C103.568 40.2148 103.131 39.7031 102.838 39.043C102.549 38.3828 102.404 37.6035 102.404 36.7051C102.404 36.0566 102.494 35.4648 102.674 34.9297C102.857 34.3906 103.123 33.9258 103.471 33.5352C103.822 33.1445 104.252 32.8438 104.76 32.6328C105.271 32.418 105.857 32.3105 106.518 32.3105C106.951 32.3105 107.369 32.3535 107.771 32.4395C108.174 32.5254 108.537 32.6484 108.861 32.8086L108.463 33.6523C108.189 33.5273 107.889 33.4199 107.561 33.3301C107.236 33.2363 106.885 33.1895 106.506 33.1895ZM110.402 41V32.4336H111.398V40.1094H115.201V41H110.402ZM123.451 33.1895C122.979 33.1895 122.553 33.2715 122.174 33.4355C121.799 33.5957 121.479 33.8301 121.213 34.1387C120.951 34.4434 120.75 34.8125 120.609 35.2461C120.469 35.6797 120.398 36.168 120.398 36.7109C120.398 37.4297 120.51 38.0547 120.732 38.5859C120.959 39.1133 121.295 39.5215 121.74 39.8105C122.189 40.0996 122.75 40.2441 123.422 40.2441C123.805 40.2441 124.164 40.2129 124.5 40.1504C124.84 40.084 125.17 40.002 125.49 39.9043V40.7715C125.178 40.8887 124.85 40.9746 124.506 41.0293C124.162 41.0879 123.754 41.1172 123.281 41.1172C122.41 41.1172 121.682 40.9375 121.096 40.5781C120.514 40.2148 120.076 39.7031 119.783 39.043C119.494 38.3828 119.35 37.6035 119.35 36.7051C119.35 36.0566 119.439 35.4648 119.619 34.9297C119.803 34.3906 120.068 33.9258 120.416 33.5352C120.768 33.1445 121.197 32.8438 121.705 32.6328C122.217 32.418 122.803 32.3105 123.463 32.3105C123.896 32.3105 124.314 32.3535 124.717 32.4395C125.119 32.5254 125.482 32.6484 125.807 32.8086L125.408 33.6523C125.135 33.5273 124.834 33.4199 124.506 33.3301C124.182 33.2363 123.83 33.1895 123.451 33.1895ZM127.348 41V32.4336H128.344V40.1094H132.146V41H127.348ZM140.396 33.1895C139.924 33.1895 139.498 33.2715 139.119 33.4355C138.744 33.5957 138.424 33.8301 138.158 34.1387C137.896 34.4434 137.695 34.8125 137.555 35.2461C137.414 35.6797 137.344 36.168 137.344 36.7109C137.344 37.4297 137.455 38.0547 137.678 38.5859C137.904 39.1133 138.24 39.5215 138.686 39.8105C139.135 40.0996 139.695 40.2441 140.367 40.2441C140.75 40.2441 141.109 40.2129 141.445 40.1504C141.785 40.084 142.115 40.002 142.436 39.9043V40.7715C142.123 40.8887 141.795 40.9746 141.451 41.0293C141.107 41.0879 140.699 41.1172 140.227 41.1172C139.355 41.1172 138.627 40.9375 138.041 40.5781C137.459 40.2148 137.021 39.7031 136.729 39.043C136.439 38.3828 136.295 37.6035 136.295 36.7051C136.295 36.0566 136.385 35.4648 136.564 34.9297C136.748 34.3906 137.014 33.9258 137.361 33.5352C137.713 33.1445 138.143 32.8438 138.65 32.6328C139.162 32.418 139.748 32.3105 140.408 32.3105C140.842 32.3105 141.26 32.3535 141.662 32.4395C142.064 32.5254 142.428 32.6484 142.752 32.8086L142.354 33.6523C142.08 33.5273 141.779 33.4199 141.451 33.3301C141.127 33.2363 140.775 33.1895 140.396 33.1895ZM144.293 41V32.4336H145.289V40.1094H149.092V41H144.293ZM157.342 33.1895C156.869 33.1895 156.443 33.2715 156.064 33.4355C155.689 33.5957 155.369 33.8301 155.104 34.1387C154.842 34.4434 154.641 34.8125 154.5 35.2461C154.359 35.6797 154.289 36.168 154.289 36.7109C154.289 37.4297 154.4 38.0547 154.623 38.5859C154.85 39.1133 155.186 39.5215 155.631 39.8105C156.08 40.0996 156.641 40.2441 157.312 40.2441C157.695 40.2441 158.055 40.2129 158.391 40.1504C158.73 40.084 159.061 40.002 159.381 39.9043V40.7715C159.068 40.8887 158.74 40.9746 158.396 41.0293C158.053 41.0879 157.645 41.1172 157.172 41.1172C156.301 41.1172 155.572 40.9375 154.986 40.5781C154.404 40.2148 153.967 39.7031 153.674 39.043C153.385 38.3828 153.24 37.6035 153.24 36.7051C153.24 36.0566 153.33 35.4648 153.51 34.9297C153.693 34.3906 153.959 33.9258 154.307 33.5352C154.658 33.1445 155.088 32.8438 155.596 32.6328C156.107 32.418 156.693 32.3105 157.354 32.3105C157.787 32.3105 158.205 32.3535 158.607 32.4395C159.01 32.5254 159.373 32.6484 159.697 32.8086L159.299 33.6523C159.025 33.5273 158.725 33.4199 158.396 33.3301C158.072 33.2363 157.721 33.1895 157.342 33.1895ZM161.238 41V32.4336H162.234V40.1094H166.037V41H161.238ZM174.287 33.1895C173.814 33.1895 173.389 33.2715 173.01 33.4355C172.635 33.5957 172.314 33.8301 172.049 34.1387C171.787 34.4434 171.586 34.8125 171.445 35.2461C171.305 35.6797 171.234 36.168 171.234 36.7109C171.234 37.4297 171.346 38.0547 171.568 38.5859C171.795 39.1133 172.131 39.5215 172.576 39.8105C173.025 40.0996 173.586 40.2441 174.258 40.2441C174.641 40.2441 175 40.2129 175.336 40.1504C175.676 40.084 176.006 40.002 176.326 39.9043V40.7715C176.014 40.8887 175.686 40.9746 175.342 41.0293C174.998 41.0879 174.59 41.1172 174.117 41.1172C173.246 41.1172 172.518 40.9375 171.932 40.5781C171.35 40.2148 170.912 39.7031 170.619 39.043C170.33 38.3828 170.186 37.6035 170.186 36.7051C170.186 36.0566 170.275 35.4648 170.455 34.9297C170.639 34.3906 170.904 33.9258 171.252 33.5352C171.604 33.1445 172.033 32.8438 172.541 32.6328C173.053 32.418 173.639 32.3105 174.299 32.3105C174.732 32.3105 175.15 32.3535 175.553 32.4395C175.955 32.5254 176.318 32.6484 176.643 32.8086L176.244 33.6523C175.971 33.5273 175.67 33.4199 175.342 33.3301C175.018 33.2363 174.666 33.1895 174.287 33.1895ZM178.184 41V32.4336H179.18V40.1094H182.982V41H178.184ZM191.232 33.1895C190.76 33.1895 190.334 33.2715 189.955 33.4355C189.58 33.5957 189.26 33.8301 188.994 34.1387C188.732 34.4434 188.531 34.8125 188.391 35.2461C188.25 35.6797 188.18 36.168 188.18 36.7109C188.18 37.4297 188.291 38.0547 188.514 38.5859C188.74 39.1133 189.076 39.5215 189.521 39.8105C189.971 40.0996 190.531 40.2441 191.203 40.2441C191.586 40.2441 191.945 40.2129 192.281 40.1504C192.621 40.084 192.951 40.002 193.271 39.9043V40.7715C192.959 40.8887 192.631 40.9746 192.287 41.0293C191.943 41.0879 191.535 41.1172 191.062 41.1172C190.191 41.1172 189.463 40.9375 188.877 40.5781C188.295 40.2148 187.857 39.7031 187.564 39.043C187.275 38.3828 187.131 37.6035 187.131 36.7051C187.131 36.0566 187.221 35.4648 187.4 34.9297C187.584 34.3906 187.85 33.9258 188.197 33.5352C188.549 33.1445 188.979 32.8438 189.486 32.6328C189.998 32.418 190.584 32.3105 191.244 32.3105C191.678 32.3105 192.096 32.3535 192.498 32.4395C192.9 32.5254 193.264 32.6484 193.588 32.8086L193.189 33.6523C192.916 33.5273 192.615 33.4199 192.287 33.3301C191.963 33.2363 191.611 33.1895 191.232 33.1895ZM195.129 41V32.4336H196.125V40.1094H199.928V41H195.129ZM208.178 33.1895C207.705 33.1895 207.279 33.2715 206.9 33.4355C206.525 33.5957 206.205 33.8301 205.939 34.1387C205.678 34.4434 205.477 34.8125 205.336 35.2461C205.195 35.6797 205.125 36.168 205.125 36.7109C205.125 37.4297 205.236 38.0547 205.459 38.5859C205.686 39.1133 206.021 39.5215 206.467 39.8105C206.916 40.0996 207.477 40.2441 208.148 40.2441C208.531 40.2441 208.891 40.2129 209.227 40.1504C209.566 40.084 209.896 40.002 210.217 39.9043V40.7715C209.904 40.8887 209.576 40.9746 209.232 41.0293C208.889 41.0879 208.48 41.1172 208.008 41.1172C207.137 41.1172 206.408 40.9375 205.822 40.5781C205.24 40.2148 204.803 39.7031 204.51 39.043C204.221 38.3828 204.076 37.6035 204.076 36.7051C204.076 36.0566 204.166 35.4648 204.346 34.9297C204.529 34.3906 204.795 33.9258 205.143 33.5352C205.494 33.1445 205.924 32.8438 206.432 32.6328C206.943 32.418 207.529 32.3105 208.189 32.3105C208.623 32.3105 209.041 32.3535 209.443 32.4395C209.846 32.5254 210.209 32.6484 210.533 32.8086L210.135 33.6523C209.861 33.5273 209.561 33.4199 209.232 33.3301C208.908 33.2363 208.557 33.1895 208.178 33.1895ZM212.074 41V32.4336H213.07V40.1094H216.873V41H212.074ZM225.123 33.1895C224.65 33.1895 224.225 33.2715 223.846 33.4355C223.471 33.5957 223.15 33.8301 222.885 34.1387C222.623 34.4434 222.422 34.8125 222.281 35.2461C222.141 35.6797 222.07 36.168 222.07 36.7109C222.07 37.4297 222.182 38.0547 222.404 38.5859C222.631 39.1133 222.967 39.5215 223.412 39.8105C223.861 40.0996 224.422 40.2441 225.094 40.2441C225.477 40.2441 225.836 40.2129 226.172 40.1504C226.512 40.084 226.842 40.002 227.162 39.9043V40.7715C226.85 40.8887 226.521 40.9746 226.178 41.0293C225.834 41.0879 225.426 41.1172 224.953 41.1172C224.082 41.1172 223.354 40.9375 222.768 40.5781C222.186 40.2148 221.748 39.7031 221.455 39.043C221.166 38.3828 221.021 37.6035 221.021 36.7051C221.021 36.0566 221.111 35.4648 221.291 34.9297C221.475 34.3906 221.74 33.9258 222.088 33.5352C222.439 33.1445 222.869 32.8438 223.377 32.6328C223.889 32.418 224.475 32.3105 225.135 32.3105C225.568 32.3105 225.986 32.3535 226.389 32.4395C226.791 32.5254 227.154 32.6484 227.479 32.8086L227.08 33.6523C226.807 33.5273 226.506 33.4199 226.178 33.3301C225.854 33.2363 225.502 33.1895 225.123 33.1895ZM229.02 41V32.4336H230.016V40.1094H233.818V41H229.02ZM242.068 33.1895C241.596 33.1895 241.17 33.2715 240.791 33.4355C240.416 33.5957 240.096 33.8301 239.83 34.1387C239.568 34.4434 239.367 34.8125 239.227 35.2461C239.086 35.6797 239.016 36.168 239.016 36.7109C239.016 37.4297 239.127 38.0547 239.35 38.5859C239.576 39.1133 239.912 39.5215 240.357 39.8105C240.807 40.0996 241.367 40.2441 242.039 40.2441C242.422 40.2441 242.781 40.2129 243.117 40.1504C243.457 40.084 243.787 40.002 244.107 39.9043V40.7715C243.795 40.8887 243.467 40.9746 243.123 41.0293C242.779 41.0879 242.371 41.1172 241.898 41.1172C241.027 41.1172 240.299 40.9375 239.713 40.5781C239.131 40.2148 238.693 39.7031 238.4 39.043C238.111 38.3828 237.967 37.6035 237.967 36.7051C237.967 36.0566 238.057 35.4648 238.236 34.9297C238.42 34.3906 238.686 33.9258 239.033 33.5352C239.385 33.1445 239.814 32.8438 240.322 32.6328C240.834 32.418 241.42 32.3105 242.08 32.3105C242.514 32.3105 242.932 32.3535 243.334 32.4395C243.736 32.5254 244.1 32.6484 244.424 32.8086L244.025 33.6523C243.752 33.5273 243.451 33.4199 243.123 33.3301C242.799 33.2363 242.447 33.1895 242.068 33.1895ZM245.965 41V32.4336H246.961V40.1094H250.764V41H245.965ZM259.014 33.1895C258.541 33.1895 258.115 33.2715 257.736 33.4355C257.361 33.5957 257.041 33.8301 256.775 34.1387C256.514 34.4434 256.312 34.8125 256.172 35.2461C256.031 35.6797 255.961 36.168 255.961 36.7109C255.961 37.4297 256.072 38.0547 256.295 38.5859C256.521 39.1133 256.857 39.5215 257.303 39.8105C257.752 40.0996 258.312 40.2441 258.984 40.2441C259.367 40.2441 259.727 40.2129 260.062 40.1504C260.402 40.084 260.732 40.002 261.053 39.9043V40.7715C260.74 40.8887 260.412 40.9746 260.068 41.0293C259.725 41.0879 259.316 41.1172 258.844 41.1172C257.973 41.1172 257.244 40.9375 256.658 40.5781C256.076 40.2148 255.639 39.7031 255.346 39.043C255.057 38.3828 254.912 37.6035 254.912 36.7051C254.912 36.0566 255.002 35.4648 255.182 34.9297C255.365 34.3906 255.631 33.9258 255.979 33.5352C256.33 33.1445 256.76 32.8438 257.268 32.6328C257.779 32.418 258.365 32.3105 259.025 32.3105C259.459 32.3105 259.877 32.3535 260.279 32.4395C260.682 32.5254 261.045 32.6484 261.369 32.8086L260.971 33.6523C260.697 33.5273 260.396 33.4199 260.068 33.3301C259.744 33.2363 259.393 33.1895 259.014 33.1895ZM262.91 41V32.4336H263.906V40.1094H267.709V41H262.91ZM275.959 33.1895C275.486 33.1895 275.061 33.2715 274.682 33.4355C274.307 33.5957 273.986 33.8301 273.721 34.1387C273.459 34.4434 273.258 34.8125 273.117 35.2461C272.977 35.6797 272.906 36.168 272.906 36.7109C272.906 37.4297 273.018 38.0547 273.24 38.5859C273.467 39.1133 273.803 39.5215 274.248 39.8105C274.697 40.0996 275.258 40.2441 275.93 40.2441C276.312 40.2441 276.672 40.2129 277.008 40.1504C277.348 40.084 277.678 40.002 277.998 39.9043V40.7715C277.686 40.8887 277.357 40.9746 277.014 41.0293C276.67 41.0879 276.262 41.1172 275.789 41.1172C274.918 41.1172 274.189 40.9375 273.604 40.5781C273.021 40.2148 272.584 39.7031 272.291 39.043C272.002 38.3828 271.857 37.6035 271.857 36.7051C271.857 36.0566 271.947 35.4648 272.127 34.9297C272.311 34.3906 272.576 33.9258 272.924 33.5352C273.275 33.1445 273.705 32.8438 274.213 32.6328C274.725 32.418 275.311 32.3105 275.971 32.3105C276.404 32.3105 276.822 32.3535 277.225 32.4395C277.627 32.5254 277.99 32.6484 278.314 32.8086L277.916 33.6523C277.643 33.5273 277.342 33.4199 277.014 33.3301C276.689 33.2363 276.338 33.1895 275.959 33.1895ZM279.855 41V32.4336H280.852V40.1094H284.654V41H279.855ZM292.904 33.1895C292.432 33.1895 292.006 33.2715 291.627 33.4355C291.252 33.5957 290.932 33.8301 290.666 34.1387C290.404 34.4434 290.203 34.8125 290.062 35.2461C289.922 35.6797 289.852 36.168 289.852 36.7109C289.852 37.4297 289.963 38.0547 290.186 38.5859C290.412 39.1133 290.748 39.5215 291.193 39.8105C291.643 40.0996 292.203 40.2441 292.875 40.2441C293.258 40.2441 293.617 40.2129 293.953 40.1504C294.293 40.084 294.623 40.002 294.943 39.9043V40.7715C294.631 40.8887 294.303 40.9746 293.959 41.0293C293.615 41.0879 293.207 41.1172 292.734 41.1172C291.863 41.1172 291.135 40.9375 290.549 40.5781C289.967 40.2148 289.529 39.7031 289.236 39.043C288.947 38.3828 288.803 37.6035 288.803 36.7051C288.803 36.0566 288.893 35.4648 289.072 34.9297C289.256 34.3906 289.521 33.9258 289.869 33.5352C290.221 33.1445 290.65 32.8438 291.158 32.6328C291.67 32.418 292.256 32.3105 292.916 32.3105C293.35 32.3105 293.768 32.3535 294.17 32.4395C294.572 32.5254 294.936 32.6484 295.26 32.8086L294.861 33.6523C294.588 33.5273 294.287 33.4199 293.959 33.3301C293.635 33.2363 293.283 33.1895 292.904 33.1895ZM296.801 41V32.4336H297.797V40.1094H301.6V41H296.801ZM309.85 33.1895C309.377 33.1895 308.951 33.2715 308.572 33.4355C308.197 33.5957 307.877 33.8301 307.611 34.1387C307.35 34.4434 307.148 34.8125 307.008 35.2461C306.867 35.6797 306.797 36.168 306.797 36.7109C306.797 37.4297 306.908 38.0547 307.131 38.5859C307.357 39.1133 307.693 39.5215 308.139 39.8105C308.588 40.0996 309.148 40.2441 309.82 40.2441C310.203 40.2441 310.562 40.2129 310.898 40.1504C311.238 40.084 311.568 40.002 311.889 39.9043V40.7715C311.576 40.8887 311.248 40.9746 310.904 41.0293C310.561 41.0879 310.152 41.1172 309.68 41.1172C308.809 41.1172 308.08 40.9375 307.494 40.5781C306.912 40.2148 306.475 39.7031 306.182 39.043C305.893 38.3828 305.748 37.6035 305.748 36.7051C305.748 36.0566 305.838 35.4648 306.018 34.9297C306.201 34.3906 306.467 33.9258 306.814 33.5352C307.166 33.1445 307.596 32.8438 308.104 32.6328C308.615 32.418 309.201 32.3105 309.861 32.3105C310.295 32.3105 310.713 32.3535 311.115 32.4395C311.518 32.5254 311.881 32.6484 312.205 32.8086L311.807 33.6523C311.533 33.5273 311.232 33.4199 310.904 33.3301C310.58 33.2363 310.229 33.1895 309.85 33.1895ZM313.746 41V32.4336H314.742V40.1094H318.545V41H313.746ZM4.83398 49.1895C4.36133 49.1895 3.93555 49.2715 3.55664 49.4355C3.18164 49.5957 2.86133 49.8301 2.5957 50.1387C2.33398 50.4434 2.13281 50.8125 1.99219 51.2461C1.85156 51.6797 1.78125 52.168 1.78125 52.7109C1.78125 53.4297 1.89258 54.0547 2.11523 54.5859C2.3418 55.1133 2.67773 55.5215 3.12305 55.8105C3.57227 56.0996 4.13281 56.2441 4.80469 56.2441C5.1875 56.2441 5.54688 56.2129 5.88281 56.1504C6.22266 56.084 6.55273 56.002 6.87305 55.9043V56.7715C6.56055 56.8887 6.23242 56.9746 5.88867 57.0293C5.54492 57.0879 5.13672 57.1172 4.66406 57.1172C3.79297 57.1172 3.06445 56.9375 2.47852 56.5781C1.89648 56.2148 1.45898 55.7031 1.16602 55.043C0.876953 54.3828 0.732422 53.6035 0.732422 52.7051C0.732422 52.0566 0.822266 51.4648 1.00195 50.9297C1.18555 50.3906 1.45117 49.9258 1.79883 49.5352C2.15039 49.1445 2.58008 48.8438 3.08789 48.6328C3.59961 48.418 4.18555 48.3105 4.8457 48.3105C5.2793 48.3105 5.69727 48.3535 6.09961 48.4395C6.50195 48.5254 6.86523 48.6484 7.18945 48.8086L6.79102 49.6523C6.51758 49.5273 6.2168 49.4199 5.88867 49.3301C5.56445 49.2363 5.21289 49.1895 4.83398 49.1895ZM8.73047 57V48.4336H9.72656V56.1094H13.5293V57H8.73047ZM21.7793 49.1895C21.3066 49.1895 20.8809 49.2715 20.502 49.4355C20.127 49.5957 19.8066 49.8301 19.541 50.1387C19.2793 50.4434 19.0781 50.8125 18.9375 51.2461C18.7969 51.6797 18.7266 52.168 18.7266 52.7109C18.7266 53.4297 18.8379 54.0547 19.0605 54.5859C19.2871 55.1133 19.623 55.5215 20.0684 55.8105C20.5176 56.0996 21.0781 56.2441 21.75 56.2441C22.1328 56.2441 22.4922 56.2129 22.8281 56.1504C23.168 56.084 23.498 56.002 23.8184 55.9043V56.7715C23.5059 56.8887 23.1777 56.9746 22.834 57.0293C22.4902 57.0879 22.082 57.1172 21.6094 57.1172C20.7383 57.1172 20.0098 56.9375 19.4238 56.5781C18.8418 56.2148 18.4043 55.7031 18.1113 55.043C17.8223 54.3828 17.6777 53.6035 17.6777 52.7051C17.6777 52.0566 17.7676 51.4648 17.9473 50.9297C18.1309 50.3906 18.3965 49.9258 18.7441 49.5352C19.0957 49.1445 19.5254 48.8438 20.0332 48.6328C20.5449 48.418 21.1309 48.3105 21.791 48.3105C22.2246 48.3105 22.6426 48.3535 23.0449 48.4395C23.4473 48.5254 23.8105 48.6484 24.1348 48.8086L23.7363 49.6523C23.4629 49.5273 23.1621 49.4199 22.834 49.3301C22.5098 49.2363 22.1582 49.1895 21.7793 49.1895ZM25.6758 57V48.4336H26.6719V56.1094H30.4746V57H25.6758ZM38.7246 49.1895C38.252 49.1895 37.8262 49.2715 37.4473 49.4355C37.0723 49.5957 36.752 49.8301 36.4863 50.1387C36.2246 50.4434 36.0234 50.8125 35.8828 51.2461C35.7422 51.6797 35.6719 52.168 35.6719 52.7109C35.6719 53.4297 35.7832 54.0547 36.0059 54.5859C36.2324 55.1133 36.5684 55.5215 37.0137 55.8105C37.4629 56.0996 38.0234 56.2441 38.6953 56.2441C39.0781 56.2441 39.4375 56.2129 39.7734 56.1504C40.1133 56.084 40.4434 56.002 40.7637 55.9043V56.7715C40.4512 56.8887 40.123 56.9746 39.7793 57.0293C39.4355 57.0879 39.0273 57.1172 38.5547 57.1172C37.6836 57.1172 36.9551 56.9375 36.3691 56.5781C35.7871 56.2148 35.3496 55.7031 35.0566 55.043C34.7676 54.3828 34.623 53.6035 34.623 52.7051C34.623 52.0566 34.7129 51.4648 34.8926 50.9297C35.0762 50.3906 35.3418 49.9258 35.6895 49.5352C36.041 49.1445 36.4707 48.8438 36.9785 48.6328C37.4902 48.418 38.0762 48.3105 38.7363 48.3105C39.1699 48.3105 39.5879 48.3535 39.9902 48.4395C40.3926 48.5254 40.7559 48.6484 41.0801 48.8086L40.6816 49.6523C40.4082 49.5273 40.1074 49.4199 39.7793 49.3301C39.4551 49.2363 39.1035 49.1895 38.7246 49.1895ZM42.6211 57V48.4336H43.6172V56.1094H47.4199V57H42.6211ZM55.6699 49.1895C55.1973 49.1895 54.7715 49.2715 54.3926 49.4355C54.0176 49.5957 53.6973 49.8301 53.4316 50.1387C53.1699 50.4434 52.9688 50.8125 52.8281 51.2461C52.6875 51.6797 52.6172 52.168 52.6172 52.7109C52.6172 53.4297 52.7285 54.0547 52.9512 54.5859C53.1777 55.1133 53.5137 55.5215 53.959 55.8105C54.4082 56.0996 54.9688 56.2441 55.6406 56.2441C56.0234 56.2441 56.3828 56.2129 56.7188 56.1504C57.0586 56.084 57.3887 56.002 57.709 55.9043V56.7715C57.3965 56.8887 57.0684 56.9746 56.7246 57.0293C56.3809 57.0879 55.9727 57.1172 55.5 57.1172C54.6289 57.1172 53.9004 56.9375 53.3145 56.5781C52.7324 56.2148 52.2949 55.7031 52.002 55.043C51.7129 54.3828 51.5684 53.6035 51.5684 52.7051C51.5684 52.0566 51.6582 51.4648 51.8379 50.9297C52.0215 50.3906 52.2871 49.9258 52.6348 49.5352C52.9863 49.1445 53.416 48.8438 53.9238 48.6328C54.4355 48.418 55.0215 48.3105 55.6816 48.3105C56.1152 48.3105 56.5332 48.3535 56.9355 48.4395C57.3379 48.5254 57.7012 48.6484 58.0254 48.8086L57.627 49.6523C57.3535 49.5273 57.0527 49.4199 56.7246 49.3301C56.4004 49.2363 56.0488 49.1895 55.6699 49.1895ZM59.5664 57V48.4336H60.5625V56.1094H64.3652V57H59.5664ZM72.6152 49.1895C72.1426 49.1895 71.7168 49.2715 71.3379 49.4355C70.9629 49.5957 70.6426 49.8301 70.377 50.1387C70.1152 50.4434 69.9141 50.8125 69.7734 51.2461C69.6328 51.6797 69.5625 52.168 69.5625 52.7109C69.5625 53.4297 69.6738 54.0547 69.8965 54.5859C70.123 55.1133 70.459 55.5215 70.9043 55.8105C71.3535 56.0996 71.9141 56.2441 72.5859 56.2441C72.9688 56.2441 73.3281 56.2129 73.6641 56.1504C74.0039 56.084 74.334 56.002 74.6543 55.9043V56.7715C74.3418 56.8887 74.0137 56.9746 73.6699 57.0293C73.3262 57.0879 72.918 57.1172 72.4453 57.1172C71.5742 57.1172 70.8457 56.9375 70.2598 56.5781C69.6777 56.2148 69.2402 55.7031 68.9473 55.043C68.6582 54.3828 68.5137 53.6035 68.5137 52.7051C68.5137 52.0566 68.6035 51.4648 68.7832 50.9297C68.9668 50.3906 69.2324 49.9258 69.5801 49.5352C69.9316 49.1445 70.3613 48.8438 70.8691 48.6328C71.3809 48.418 71.9668 48.3105 72.627 48.3105C73.0605 48.3105 73.4785 48.3535 73.8809 48.4395C74.2832 48.5254 74.6465 48.6484 74.9707 48.8086L74.5723 49.6523C74.2988 49.5273 73.998 49.4199 73.6699 49.3301C73.3457 49.2363 72.9941 49.1895 72.6152 49.1895ZM76.5117 57V48.4336H77.5078V56.1094H81.3105V57H76.5117ZM89.5605 49.1895C89.0879 49.1895 88.6621 49.2715 88.2832 49.4355C87.9082 49.5957 87.5879 49.8301 87.3223 50.1387C87.0605 50.4434 86.8594 50.8125 86.7188 51.2461C86.5781 51.6797 86.5078 52.168 86.5078 52.7109C86.5078 53.4297 86.6191 54.0547 86.8418 54.5859C87.0684 55.1133 87.4043 55.5215 87.8496 55.8105C88.2988 56.0996 88.8594 56.2441 89.5312 56.2441C89.9141 56.2441 90.2734 56.2129 90.6094 56.1504C90.9492 56.084 91.2793 56.002 91.5996 55.9043V56.7715C91.2871 56.8887 90.959 56.9746 90.6152 57.0293C90.2715 57.0879 89.8633 57.1172 89.3906 57.1172C88.5195 57.1172 87.791 56.9375 87.2051 56.5781C86.623 56.2148 86.1855 55.7031 85.8926 55.043C85.6035 54.3828 85.459 53.6035 85.459 52.7051C85.459 52.0566 85.5488 51.4648 85.7285 50.9297C85.9121 50.3906 86.1777 49.9258 86.5254 49.5352C86.877 49.1445 87.3066 48.8438 87.8145 48.6328C88.3262 48.418 88.9121 48.3105 89.5723 48.3105C90.0059 48.3105 90.4238 48.3535 90.8262 48.4395C91.2285 48.5254 91.5918 48.6484 91.916 48.8086L91.5176 49.6523C91.2441 49.5273 90.9434 49.4199 90.6152 49.3301C90.291 49.2363 89.9395 49.1895 89.5605 49.1895ZM93.457 57V48.4336H94.4531V56.1094H98.2559V57H93.457ZM106.506 49.1895C106.033 49.1895 105.607 49.2715 105.229 49.4355C104.854 49.5957 104.533 49.8301 104.268 50.1387C104.006 50.4434 103.805 50.8125 103.664 51.2461C103.523 51.6797 103.453 52.168 103.453 52.7109C103.453 53.4297 103.564 54.0547 103.787 54.5859C104.014 55.1133 104.35 55.5215 104.795 55.8105C105.244 56.0996 105.805 56.2441 106.477 56.2441C106.859 56.2441 107.219 56.2129 107.555 56.1504C107.895 56.084 108.225 56.002 108.545 55.9043V56.7715C108.232 56.8887 107.904 56.9746 107.561 57.0293C107.217 57.0879 106.809 57.1172 106.336 57.1172C105.465 57.1172 104.736 56.9375 104.15 56.5781C103.568 56.2148 103.131 55.7031 102.838 55.043C102.549 54.3828 102.404 53.6035 102.404 52.7051C102.404 52.0566 102.494 51.4648 102.674 50.9297C102.857 50.3906 103.123 49.9258 103.471 49.5352C103.822 49.1445 104.252 48.8438 104.76 48.6328C105.271 48.418 105.857 48.3105 106.518 48.3105C106.951 48.3105 107.369 48.3535 107.771 48.4395C108.174 48.5254 108.537 48.6484 108.861 48.8086L108.463 49.6523C108.189 49.5273 107.889 49.4199 107.561 49.3301C107.236 49.2363 106.885 49.1895 106.506 49.1895ZM110.402 57V48.4336H111.398V56.1094H115.201V57H110.402ZM123.451 49.1895C122.979 49.1895 122.553 49.2715 122.174 49.4355C121.799 49.5957 121.479 49.8301 121.213 50.1387C120.951 50.4434 120.75 50.8125 120.609 51.2461C120.469 51.6797 120.398 52.168 120.398 52.7109C120.398 53.4297 120.51 54.0547 120.732 54.5859C120.959 55.1133 121.295 55.5215 121.74 55.8105C122.189 56.0996 122.75 56.2441 123.422 56.2441C123.805 56.2441 124.164 56.2129 124.5 56.1504C124.84 56.084 125.17 56.002 125.49 55.9043V56.7715C125.178 56.8887 124.85 56.9746 124.506 57.0293C124.162 57.0879 123.754 57.1172 123.281 57.1172C122.41 57.1172 121.682 56.9375 121.096 56.5781C120.514 56.2148 120.076 55.7031 119.783 55.043C119.494 54.3828 119.35 53.6035 119.35 52.7051C119.35 52.0566 119.439 51.4648 119.619 50.9297C119.803 50.3906 120.068 49.9258 120.416 49.5352C120.768 49.1445 121.197 48.8438 121.705 48.6328C122.217 48.418 122.803 48.3105 123.463 48.3105C123.896 48.3105 124.314 48.3535 124.717 48.4395C125.119 48.5254 125.482 48.6484 125.807 48.8086L125.408 49.6523C125.135 49.5273 124.834 49.4199 124.506 49.3301C124.182 49.2363 123.83 49.1895 123.451 49.1895ZM127.348 57V48.4336H128.344V56.1094H132.146V57H127.348ZM140.396 49.1895C139.924 49.1895 139.498 49.2715 139.119 49.4355C138.744 49.5957 138.424 49.8301 138.158 50.1387C137.896 50.4434 137.695 50.8125 137.555 51.2461C137.414 51.6797 137.344 52.168 137.344 52.7109C137.344 53.4297 137.455 54.0547 137.678 54.5859C137.904 55.1133 138.24 55.5215 138.686 55.8105C139.135 56.0996 139.695 56.2441 140.367 56.2441C140.75 56.2441 141.109 56.2129 141.445 56.1504C141.785 56.084 142.115 56.002 142.436 55.9043V56.7715C142.123 56.8887 141.795 56.9746 141.451 57.0293C141.107 57.0879 140.699 57.1172 140.227 57.1172C139.355 57.1172 138.627 56.9375 138.041 56.5781C137.459 56.2148 137.021 55.7031 136.729 55.043C136.439 54.3828 136.295 53.6035 136.295 52.7051C136.295 52.0566 136.385 51.4648 136.564 50.9297C136.748 50.3906 137.014 49.9258 137.361 49.5352C137.713 49.1445 138.143 48.8438 138.65 48.6328C139.162 48.418 139.748 48.3105 140.408 48.3105C140.842 48.3105 141.26 48.3535 141.662 48.4395C142.064 48.5254 142.428 48.6484 142.752 48.8086L142.354 49.6523C142.08 49.5273 141.779 49.4199 141.451 49.3301C141.127 49.2363 140.775 49.1895 140.396 49.1895ZM144.293 57V48.4336H145.289V56.1094H149.092V57H144.293ZM157.342 49.1895C156.869 49.1895 156.443 49.2715 156.064 49.4355C155.689 49.5957 155.369 49.8301 155.104 50.1387C154.842 50.4434 154.641 50.8125 154.5 51.2461C154.359 51.6797 154.289 52.168 154.289 52.7109C154.289 53.4297 154.4 54.0547 154.623 54.5859C154.85 55.1133 155.186 55.5215 155.631 55.8105C156.08 56.0996 156.641 56.2441 157.312 56.2441C157.695 56.2441 158.055 56.2129 158.391 56.1504C158.73 56.084 159.061 56.002 159.381 55.9043V56.7715C159.068 56.8887 158.74 56.9746 158.396 57.0293C158.053 57.0879 157.645 57.1172 157.172 57.1172C156.301 57.1172 155.572 56.9375 154.986 56.5781C154.404 56.2148 153.967 55.7031 153.674 55.043C153.385 54.3828 153.24 53.6035 153.24 52.7051C153.24 52.0566 153.33 51.4648 153.51 50.9297C153.693 50.3906 153.959 49.9258 154.307 49.5352C154.658 49.1445 155.088 48.8438 155.596 48.6328C156.107 48.418 156.693 48.3105 157.354 48.3105C157.787 48.3105 158.205 48.3535 158.607 48.4395C159.01 48.5254 159.373 48.6484 159.697 48.8086L159.299 49.6523C159.025 49.5273 158.725 49.4199 158.396 49.3301C158.072 49.2363 157.721 49.1895 157.342 49.1895ZM161.238 57V48.4336H162.234V56.1094H166.037V57H161.238ZM174.287 49.1895C173.814 49.1895 173.389 49.2715 173.01 49.4355C172.635 49.5957 172.314 49.8301 172.049 50.1387C171.787 50.4434 171.586 50.8125 171.445 51.2461C171.305 51.6797 171.234 52.168 171.234 52.7109C171.234 53.4297 171.346 54.0547 171.568 54.5859C171.795 55.1133 172.131 55.5215 172.576 55.8105C173.025 56.0996 173.586 56.2441 174.258 56.2441C174.641 56.2441 175 56.2129 175.336 56.1504C175.676 56.084 176.006 56.002 176.326 55.9043V56.7715C176.014 56.8887 175.686 56.9746 175.342 57.0293C174.998 57.0879 174.59 57.1172 174.117 57.1172C173.246 57.1172 172.518 56.9375 171.932 56.5781C171.35 56.2148 170.912 55.7031 170.619 55.043C170.33 54.3828 170.186 53.6035 170.186 52.7051C170.186 52.0566 170.275 51.4648 170.455 50.9297C170.639 50.3906 170.904 49.9258 171.252 49.5352C171.604 49.1445 172.033 48.8438 172.541 48.6328C173.053 48.418 173.639 48.3105 174.299 48.3105C174.732 48.3105 175.15 48.3535 175.553 48.4395C175.955 48.5254 176.318 48.6484 176.643 48.8086L176.244 49.6523C175.971 49.5273 175.67 49.4199 175.342 49.3301C175.018 49.2363 174.666 49.1895 174.287 49.1895ZM178.184 57V48.4336H179.18V56.1094H182.982V57H178.184ZM191.232 49.1895C190.76 49.1895 190.334 49.2715 189.955 49.4355C189.58 49.5957 189.26 49.8301 188.994 50.1387C188.732 50.4434 188.531 50.8125 188.391 51.2461C188.25 51.6797 188.18 52.168 188.18 52.7109C188.18 53.4297 188.291 54.0547 188.514 54.5859C188.74 55.1133 189.076 55.5215 189.521 55.8105C189.971 56.0996 190.531 56.2441 191.203 56.2441C191.586 56.2441 191.945 56.2129 192.281 56.1504C192.621 56.084 192.951 56.002 193.271 55.9043V56.7715C192.959 56.8887 192.631 56.9746 192.287 57.0293C191.943 57.0879 191.535 57.1172 191.062 57.1172C190.191 57.1172 189.463 56.9375 188.877 56.5781C188.295 56.2148 187.857 55.7031 187.564 55.043C187.275 54.3828 187.131 53.6035 187.131 52.7051C187.131 52.0566 187.221 51.4648 187.4 50.9297C187.584 50.3906 187.85 49.9258 188.197 49.5352C188.549 49.1445 188.979 48.8438 189.486 48.6328C189.998 48.418 190.584 48.3105 191.244 48.3105C191.678 48.3105 192.096 48.3535 192.498 48.4395C192.9 48.5254 193.264 48.6484 193.588 48.8086L193.189 49.6523C192.916 49.5273 192.615 49.4199 192.287 49.3301C191.963 49.2363 191.611 49.1895 191.232 49.1895ZM195.129 57V48.4336H196.125V56.1094H199.928V57H195.129ZM208.178 49.1895C207.705 49.1895 207.279 49.2715 206.9 49.4355C206.525 49.5957 206.205 49.8301 205.939 50.1387C205.678 50.4434 205.477 50.8125 205.336 51.2461C205.195 51.6797 205.125 52.168 205.125 52.7109C205.125 53.4297 205.236 54.0547 205.459 54.5859C205.686 55.1133 206.021 55.5215 206.467 55.8105C206.916 56.0996 207.477 56.2441 208.148 56.2441C208.531 56.2441 208.891 56.2129 209.227 56.1504C209.566 56.084 209.896 56.002 210.217 55.9043V56.7715C209.904 56.8887 209.576 56.9746 209.232 57.0293C208.889 57.0879 208.48 57.1172 208.008 57.1172C207.137 57.1172 206.408 56.9375 205.822 56.5781C205.24 56.2148 204.803 55.7031 204.51 55.043C204.221 54.3828 204.076 53.6035 204.076 52.7051C204.076 52.0566 204.166 51.4648 204.346 50.9297C204.529 50.3906 204.795 49.9258 205.143 49.5352C205.494 49.1445 205.924 48.8438 206.432 48.6328C206.943 48.418 207.529 48.3105 208.189 48.3105C208.623 48.3105 209.041 48.3535 209.443 48.4395C209.846 48.5254 210.209 48.6484 210.533 48.8086L210.135 49.6523C209.861 49.5273 209.561 49.4199 209.232 49.3301C208.908 49.2363 208.557 49.1895 208.178 49.1895ZM212.074 57V48.4336H213.07V56.1094H216.873V57H212.074ZM225.123 49.1895C224.65 49.1895 224.225 49.2715 223.846 49.4355C223.471 49.5957 223.15 49.8301 222.885 50.1387C222.623 50.4434 222.422 50.8125 222.281 51.2461C222.141 51.6797 222.07 52.168 222.07 52.7109C222.07 53.4297 222.182 54.0547 222.404 54.5859C222.631 55.1133 222.967 55.5215 223.412 55.8105C223.861 56.0996 224.422 56.2441 225.094 56.2441C225.477 56.2441 225.836 56.2129 226.172 56.1504C226.512 56.084 226.842 56.002 227.162 55.9043V56.7715C226.85 56.8887 226.521 56.9746 226.178 57.0293C225.834 57.0879 225.426 57.1172 224.953 57.1172C224.082 57.1172 223.354 56.9375 222.768 56.5781C222.186 56.2148 221.748 55.7031 221.455 55.043C221.166 54.3828 221.021 53.6035 221.021 52.7051C221.021 52.0566 221.111 51.4648 221.291 50.9297C221.475 50.3906 221.74 49.9258 222.088 49.5352C222.439 49.1445 222.869 48.8438 223.377 48.6328C223.889 48.418 224.475 48.3105 225.135 48.3105C225.568 48.3105 225.986 48.3535 226.389 48.4395C226.791 48.5254 227.154 48.6484 227.479 48.8086L227.08 49.6523C226.807 49.5273 226.506 49.4199 226.178 49.3301C225.854 49.2363 225.502 49.1895 225.123 49.1895ZM229.02 57V48.4336H230.016V56.1094H233.818V57H229.02ZM242.068 49.1895C241.596 49.1895 241.17 49.2715 240.791 49.4355C240.416 49.5957 240.096 49.8301 239.83 50.1387C239.568 50.4434 239.367 50.8125 239.227 51.2461C239.086 51.6797 239.016 52.168 239.016 52.7109C239.016 53.4297 239.127 54.0547 239.35 54.5859C239.576 55.1133 239.912 55.5215 240.357 55.8105C240.807 56.0996 241.367 56.2441 242.039 56.2441C242.422 56.2441 242.781 56.2129 243.117 56.1504C243.457 56.084 243.787 56.002 244.107 55.9043V56.7715C243.795 56.8887 243.467 56.9746 243.123 57.0293C242.779 57.0879 242.371 57.1172 241.898 57.1172C241.027 57.1172 240.299 56.9375 239.713 56.5781C239.131 56.2148 238.693 55.7031 238.4 55.043C238.111 54.3828 237.967 53.6035 237.967 52.7051C237.967 52.0566 238.057 51.4648 238.236 50.9297C238.42 50.3906 238.686 49.9258 239.033 49.5352C239.385 49.1445 239.814 48.8438 240.322 48.6328C240.834 48.418 241.42 48.3105 242.08 48.3105C242.514 48.3105 242.932 48.3535 243.334 48.4395C243.736 48.5254 244.1 48.6484 244.424 48.8086L244.025 49.6523C243.752 49.5273 243.451 49.4199 243.123 49.3301C242.799 49.2363 242.447 49.1895 242.068 49.1895ZM245.965 57V48.4336H246.961V56.1094H250.764V57H245.965ZM259.014 49.1895C258.541 49.1895 258.115 49.2715 257.736 49.4355C257.361 49.5957 257.041 49.8301 256.775 50.1387C256.514 50.4434 256.312 50.8125 256.172 51.2461C256.031 51.6797 255.961 52.168 255.961 52.7109C255.961 53.4297 256.072 54.0547 256.295 54.5859C256.521 55.1133 256.857 55.5215 257.303 55.8105C257.752 56.0996 258.312 56.2441 258.984 56.2441C259.367 56.2441 259.727 56.2129 260.062 56.1504C260.402 56.084 260.732 56.002 261.053 55.9043V56.7715C260.74 56.8887 260.412 56.9746 260.068 57.0293C259.725 57.0879 259.316 57.1172 258.844 57.1172C257.973 57.1172 257.244 56.9375 256.658 56.5781C256.076 56.2148 255.639 55.7031 255.346 55.043C255.057 54.3828 254.912 53.6035 254.912 52.7051C254.912 52.0566 255.002 51.4648 255.182 50.9297C255.365 50.3906 255.631 49.9258 255.979 49.5352C256.33 49.1445 256.76 48.8438 257.268 48.6328C257.779 48.418 258.365 48.3105 259.025 48.3105C259.459 48.3105 259.877 48.3535 260.279 48.4395C260.682 48.5254 261.045 48.6484 261.369 48.8086L260.971 49.6523C260.697 49.5273 260.396 49.4199 260.068 49.3301C259.744 49.2363 259.393 49.1895 259.014 49.1895ZM262.91 57V48.4336H263.906V56.1094H267.709V57H262.91ZM275.959 49.1895C275.486 49.1895 275.061 49.2715 274.682 49.4355C274.307 49.5957 273.986 49.8301 273.721 50.1387C273.459 50.4434 273.258 50.8125 273.117 51.2461C272.977 51.6797 272.906 52.168 272.906 52.7109C272.906 53.4297 273.018 54.0547 273.24 54.5859C273.467 55.1133 273.803 55.5215 274.248 55.8105C274.697 56.0996 275.258 56.2441 275.93 56.2441C276.312 56.2441 276.672 56.2129 277.008 56.1504C277.348 56.084 277.678 56.002 277.998 55.9043V56.7715C277.686 56.8887 277.357 56.9746 277.014 57.0293C276.67 57.0879 276.262 57.1172 275.789 57.1172C274.918 57.1172 274.189 56.9375 273.604 56.5781C273.021 56.2148 272.584 55.7031 272.291 55.043C272.002 54.3828 271.857 53.6035 271.857 52.7051C271.857 52.0566 271.947 51.4648 272.127 50.9297C272.311 50.3906 272.576 49.9258 272.924 49.5352C273.275 49.1445 273.705 48.8438 274.213 48.6328C274.725 48.418 275.311 48.3105 275.971 48.3105C276.404 48.3105 276.822 48.3535 277.225 48.4395C277.627 48.5254 277.99 48.6484 278.314 48.8086L277.916 49.6523C277.643 49.5273 277.342 49.4199 277.014 49.3301C276.689 49.2363 276.338 49.1895 275.959 49.1895ZM279.855 57V48.4336H280.852V56.1094H284.654V57H279.855ZM292.904 49.1895C292.432 49.1895 292.006 49.2715 291.627 49.4355C291.252 49.5957 290.932 49.8301 290.666 50.1387C290.404 50.4434 290.203 50.8125 290.062 51.2461C289.922 51.6797 289.852 52.168 289.852 52.7109C289.852 53.4297 289.963 54.0547 290.186 54.5859C290.412 55.1133 290.748 55.5215 291.193 55.8105C291.643 56.0996 292.203 56.2441 292.875 56.2441C293.258 56.2441 293.617 56.2129 293.953 56.1504C294.293 56.084 294.623 56.002 294.943 55.9043V56.7715C294.631 56.8887 294.303 56.9746 293.959 57.0293C293.615 57.0879 293.207 57.1172 292.734 57.1172C291.863 57.1172 291.135 56.9375 290.549 56.5781C289.967 56.2148 289.529 55.7031 289.236 55.043C288.947 54.3828 288.803 53.6035 288.803 52.7051C288.803 52.0566 288.893 51.4648 289.072 50.9297C289.256 50.3906 289.521 49.9258 289.869 49.5352C290.221 49.1445 290.65 48.8438 291.158 48.6328C291.67 48.418 292.256 48.3105 292.916 48.3105C293.35 48.3105 293.768 48.3535 294.17 48.4395C294.572 48.5254 294.936 48.6484 295.26 48.8086L294.861 49.6523C294.588 49.5273 294.287 49.4199 293.959 49.3301C293.635 49.2363 293.283 49.1895 292.904 49.1895ZM296.801 57V48.4336H297.797V56.1094H301.6V57H296.801ZM309.85 49.1895C309.377 49.1895 308.951 49.2715 308.572 49.4355C308.197 49.5957 307.877 49.8301 307.611 50.1387C307.35 50.4434 307.148 50.8125 307.008 51.2461C306.867 51.6797 306.797 52.168 306.797 52.7109C306.797 53.4297 306.908 54.0547 307.131 54.5859C307.357 55.1133 307.693 55.5215 308.139 55.8105C308.588 56.0996 309.148 56.2441 309.82 56.2441C310.203 56.2441 310.562 56.2129 310.898 56.1504C311.238 56.084 311.568 56.002 311.889 55.9043V56.7715C311.576 56.8887 311.248 56.9746 310.904 57.0293C310.561 57.0879 310.152 57.1172 309.68 57.1172C308.809 57.1172 308.08 56.9375 307.494 56.5781C306.912 56.2148 306.475 55.7031 306.182 55.043C305.893 54.3828 305.748 53.6035 305.748 52.7051C305.748 52.0566 305.838 51.4648 306.018 50.9297C306.201 50.3906 306.467 49.9258 306.814 49.5352C307.166 49.1445 307.596 48.8438 308.104 48.6328C308.615 48.418 309.201 48.3105 309.861 48.3105C310.295 48.3105 310.713 48.3535 311.115 48.4395C311.518 48.5254 311.881 48.6484 312.205 48.8086L311.807 49.6523C311.533 49.5273 311.232 49.4199 310.904 49.3301C310.58 49.2363 310.229 49.1895 309.85 49.1895ZM313.746 57V48.4336H314.742V56.1094H318.545V57H313.746ZM4.83398 65.1895C4.36133 65.1895 3.93555 65.2715 3.55664 65.4355C3.18164 65.5957 2.86133 65.8301 2.5957 66.1387C2.33398 66.4434 2.13281 66.8125 1.99219 67.2461C1.85156 67.6797 1.78125 68.168 1.78125 68.7109C1.78125 69.4297 1.89258 70.0547 2.11523 70.5859C2.3418 71.1133 2.67773 71.5215 3.12305 71.8105C3.57227 72.0996 4.13281 72.2441 4.80469 72.2441C5.1875 72.2441 5.54688 72.2129 5.88281 72.1504C6.22266 72.084 6.55273 72.002 6.87305 71.9043V72.7715C6.56055 72.8887 6.23242 72.9746 5.88867 73.0293C5.54492 73.0879 5.13672 73.1172 4.66406 73.1172C3.79297 73.1172 3.06445 72.9375 2.47852 72.5781C1.89648 72.2148 1.45898 71.7031 1.16602 71.043C0.876953 70.3828 0.732422 69.6035 0.732422 68.7051C0.732422 68.0566 0.822266 67.4648 1.00195 66.9297C1.18555 66.3906 1.45117 65.9258 1.79883 65.5352C2.15039 65.1445 2.58008 64.8438 3.08789 64.6328C3.59961 64.418 4.18555 64.3105 4.8457 64.3105C5.2793 64.3105 5.69727 64.3535 6.09961 64.4395C6.50195 64.5254 6.86523 64.6484 7.18945 64.8086L6.79102 65.6523C6.51758 65.5273 6.2168 65.4199 5.88867 65.3301C5.56445 65.2363 5.21289 65.1895 4.83398 65.1895ZM8.73047 73V64.4336H9.72656V72.1094H13.5293V73H8.73047ZM21.7793 65.1895C21.3066 65.1895 20.8809 65.2715 20.502 65.4355C20.127 65.5957 19.8066 65.8301 19.541 66.1387C19.2793 66.4434 19.0781 66.8125 18.9375 67.2461C18.7969 67.6797 18.7266 68.168 18.7266 68.7109C18.7266 69.4297 18.8379 70.0547 19.0605 70.5859C19.2871 71.1133 19.623 71.5215 20.0684 71.8105C20.5176 72.0996 21.0781 72.2441 21.75 72.2441C22.1328 72.2441 22.4922 72.2129 22.8281 72.1504C23.168 72.084 23.498 72.002 23.8184 71.9043V72.7715C23.5059 72.8887 23.1777 72.9746 22.834 73.0293C22.4902 73.0879 22.082 73.1172 21.6094 73.1172C20.7383 73.1172 20.0098 72.9375 19.4238 72.5781C18.8418 72.2148 18.4043 71.7031 18.1113 71.043C17.8223 70.3828 17.6777 69.6035 17.6777 68.7051C17.6777 68.0566 17.7676 67.4648 17.9473 66.9297C18.1309 66.3906 18.3965 65.9258 18.7441 65.5352C19.0957 65.1445 19.5254 64.8438 20.0332 64.6328C20.5449 64.418 21.1309 64.3105 21.791 64.3105C22.2246 64.3105 22.6426 64.3535 23.0449 64.4395C23.4473 64.5254 23.8105 64.6484 24.1348 64.8086L23.7363 65.6523C23.4629 65.5273 23.1621 65.4199 22.834 65.3301C22.5098 65.2363 22.1582 65.1895 21.7793 65.1895ZM25.6758 73V64.4336H26.6719V72.1094H30.4746V73H25.6758ZM38.7246 65.1895C38.252 65.1895 37.8262 65.2715 37.4473 65.4355C37.0723 65.5957 36.752 65.8301 36.4863 66.1387C36.2246 66.4434 36.0234 66.8125 35.8828 67.2461C35.7422 67.6797 35.6719 68.168 35.6719 68.7109C35.6719 69.4297 35.7832 70.0547 36.0059 70.5859C36.2324 71.1133 36.5684 71.5215 37.0137 71.8105C37.4629 72.0996 38.0234 72.2441 38.6953 72.2441C39.0781 72.2441 39.4375 72.2129 39.7734 72.1504C40.1133 72.084 40.4434 72.002 40.7637 71.9043V72.7715C40.4512 72.8887 40.123 72.9746 39.7793 73.0293C39.4355 73.0879 39.0273 73.1172 38.5547 73.1172C37.6836 73.1172 36.9551 72.9375 36.3691 72.5781C35.7871 72.2148 35.3496 71.7031 35.0566 71.043C34.7676 70.3828 34.623 69.6035 34.623 68.7051C34.623 68.0566 34.7129 67.4648 34.8926 66.9297C35.0762 66.3906 35.3418 65.9258 35.6895 65.5352C36.041 65.1445 36.4707 64.8438 36.9785 64.6328C37.4902 64.418 38.0762 64.3105 38.7363 64.3105C39.1699 64.3105 39.5879 64.3535 39.9902 64.4395C40.3926 64.5254 40.7559 64.6484 41.0801 64.8086L40.6816 65.6523C40.4082 65.5273 40.1074 65.4199 39.7793 65.3301C39.4551 65.2363 39.1035 65.1895 38.7246 65.1895ZM42.6211 73V64.4336H43.6172V72.1094H47.4199V73H42.6211ZM55.6699 65.1895C55.1973 65.1895 54.7715 65.2715 54.3926 65.4355C54.0176 65.5957 53.6973 65.8301 53.4316 66.1387C53.1699 66.4434 52.9688 66.8125 52.8281 67.2461C52.6875 67.6797 52.6172 68.168 52.6172 68.7109C52.6172 69.4297 52.7285 70.0547 52.9512 70.5859C53.1777 71.1133 53.5137 71.5215 53.959 71.8105C54.4082 72.0996 54.9688 72.2441 55.6406 72.2441C56.0234 72.2441 56.3828 72.2129 56.7188 72.1504C57.0586 72.084 57.3887 72.002 57.709 71.9043V72.7715C57.3965 72.8887 57.0684 72.9746 56.7246 73.0293C56.3809 73.0879 55.9727 73.1172 55.5 73.1172C54.6289 73.1172 53.9004 72.9375 53.3145 72.5781C52.7324 72.2148 52.2949 71.7031 52.002 71.043C51.7129 70.3828 51.5684 69.6035 51.5684 68.7051C51.5684 68.0566 51.6582 67.4648 51.8379 66.9297C52.0215 66.3906 52.2871 65.9258 52.6348 65.5352C52.9863 65.1445 53.416 64.8438 53.9238 64.6328C54.4355 64.418 55.0215 64.3105 55.6816 64.3105C56.1152 64.3105 56.5332 64.3535 56.9355 64.4395C57.3379 64.5254 57.7012 64.6484 58.0254 64.8086L57.627 65.6523C57.3535 65.5273 57.0527 65.4199 56.7246 65.3301C56.4004 65.2363 56.0488 65.1895 55.6699 65.1895ZM59.5664 73V64.4336H60.5625V72.1094H64.3652V73H59.5664ZM72.6152 65.1895C72.1426 65.1895 71.7168 65.2715 71.3379 65.4355C70.9629 65.5957 70.6426 65.8301 70.377 66.1387C70.1152 66.4434 69.9141 66.8125 69.7734 67.2461C69.6328 67.6797 69.5625 68.168 69.5625 68.7109C69.5625 69.4297 69.6738 70.0547 69.8965 70.5859C70.123 71.1133 70.459 71.5215 70.9043 71.8105C71.3535 72.0996 71.9141 72.2441 72.5859 72.2441C72.9688 72.2441 73.3281 72.2129 73.6641 72.1504C74.0039 72.084 74.334 72.002 74.6543 71.9043V72.7715C74.3418 72.8887 74.0137 72.9746 73.6699 73.0293C73.3262 73.0879 72.918 73.1172 72.4453 73.1172C71.5742 73.1172 70.8457 72.9375 70.2598 72.5781C69.6777 72.2148 69.2402 71.7031 68.9473 71.043C68.6582 70.3828 68.5137 69.6035 68.5137 68.7051C68.5137 68.0566 68.6035 67.4648 68.7832 66.9297C68.9668 66.3906 69.2324 65.9258 69.5801 65.5352C69.9316 65.1445 70.3613 64.8438 70.8691 64.6328C71.3809 64.418 71.9668 64.3105 72.627 64.3105C73.0605 64.3105 73.4785 64.3535 73.8809 64.4395C74.2832 64.5254 74.6465 64.6484 74.9707 64.8086L74.5723 65.6523C74.2988 65.5273 73.998 65.4199 73.6699 65.3301C73.3457 65.2363 72.9941 65.1895 72.6152 65.1895ZM76.5117 73V64.4336H77.5078V72.1094H81.3105V73H76.5117ZM89.5605 65.1895C89.0879 65.1895 88.6621 65.2715 88.2832 65.4355C87.9082 65.5957 87.5879 65.8301 87.3223 66.1387C87.0605 66.4434 86.8594 66.8125 86.7188 67.2461C86.5781 67.6797 86.5078 68.168 86.5078 68.7109C86.5078 69.4297 86.6191 70.0547 86.8418 70.5859C87.0684 71.1133 87.4043 71.5215 87.8496 71.8105C88.2988 72.0996 88.8594 72.2441 89.5312 72.2441C89.9141 72.2441 90.2734 72.2129 90.6094 72.1504C90.9492 72.084 91.2793 72.002 91.5996 71.9043V72.7715C91.2871 72.8887 90.959 72.9746 90.6152 73.0293C90.2715 73.0879 89.8633 73.1172 89.3906 73.1172C88.5195 73.1172 87.791 72.9375 87.2051 72.5781C86.623 72.2148 86.1855 71.7031 85.8926 71.043C85.6035 70.3828 85.459 69.6035 85.459 68.7051C85.459 68.0566 85.5488 67.4648 85.7285 66.9297C85.9121 66.3906 86.1777 65.9258 86.5254 65.5352C86.877 65.1445 87.3066 64.8438 87.8145 64.6328C88.3262 64.418 88.9121 64.3105 89.5723 64.3105C90.0059 64.3105 90.4238 64.3535 90.8262 64.4395C91.2285 64.5254 91.5918 64.6484 91.916 64.8086L91.5176 65.6523C91.2441 65.5273 90.9434 65.4199 90.6152 65.3301C90.291 65.2363 89.9395 65.1895 89.5605 65.1895ZM93.457 73V64.4336H94.4531V72.1094H98.2559V73H93.457ZM106.506 65.1895C106.033 65.1895 105.607 65.2715 105.229 65.4355C104.854 65.5957 104.533 65.8301 104.268 66.1387C104.006 66.4434 103.805 66.8125 103.664 67.2461C103.523 67.6797 103.453 68.168 103.453 68.7109C103.453 69.4297 103.564 70.0547 103.787 70.5859C104.014 71.1133 104.35 71.5215 104.795 71.8105C105.244 72.0996 105.805 72.2441 106.477 72.2441C106.859 72.2441 107.219 72.2129 107.555 72.1504C107.895 72.084 108.225 72.002 108.545 71.9043V72.7715C108.232 72.8887 107.904 72.9746 107.561 73.0293C107.217 73.0879 106.809 73.1172 106.336 73.1172C105.465 73.1172 104.736 72.9375 104.15 72.5781C103.568 72.2148 103.131 71.7031 102.838 71.043C102.549 70.3828 102.404 69.6035 102.404 68.7051C102.404 68.0566 102.494 67.4648 102.674 66.9297C102.857 66.3906 103.123 65.9258 103.471 65.5352C103.822 65.1445 104.252 64.8438 104.76 64.6328C105.271 64.418 105.857 64.3105 106.518 64.3105C106.951 64.3105 107.369 64.3535 107.771 64.4395C108.174 64.5254 108.537 64.6484 108.861 64.8086L108.463 65.6523C108.189 65.5273 107.889 65.4199 107.561 65.3301C107.236 65.2363 106.885 65.1895 106.506 65.1895ZM110.402 73V64.4336H111.398V72.1094H115.201V73H110.402ZM123.451 65.1895C122.979 65.1895 122.553 65.2715 122.174 65.4355C121.799 65.5957 121.479 65.8301 121.213 66.1387C120.951 66.4434 120.75 66.8125 120.609 67.2461C120.469 67.6797 120.398 68.168 120.398 68.7109C120.398 69.4297 120.51 70.0547 120.732 70.5859C120.959 71.1133 121.295 71.5215 121.74 71.8105C122.189 72.0996 122.75 72.2441 123.422 72.2441C123.805 72.2441 124.164 72.2129 124.5 72.1504C124.84 72.084 125.17 72.002 125.49 71.9043V72.7715C125.178 72.8887 124.85 72.9746 124.506 73.0293C124.162 73.0879 123.754 73.1172 123.281 73.1172C122.41 73.1172 121.682 72.9375 121.096 72.5781C120.514 72.2148 120.076 71.7031 119.783 71.043C119.494 70.3828 119.35 69.6035 119.35 68.7051C119.35 68.0566 119.439 67.4648 119.619 66.9297C119.803 66.3906 120.068 65.9258 120.416 65.5352C120.768 65.1445 121.197 64.8438 121.705 64.6328C122.217 64.418 122.803 64.3105 123.463 64.3105C123.896 64.3105 124.314 64.3535 124.717 64.4395C125.119 64.5254 125.482 64.6484 125.807 64.8086L125.408 65.6523C125.135 65.5273 124.834 65.4199 124.506 65.3301C124.182 65.2363 123.83 65.1895 123.451 65.1895ZM127.348 73V64.4336H128.344V72.1094H132.146V73H127.348ZM140.396 65.1895C139.924 65.1895 139.498 65.2715 139.119 65.4355C138.744 65.5957 138.424 65.8301 138.158 66.1387C137.896 66.4434 137.695 66.8125 137.555 67.2461C137.414 67.6797 137.344 68.168 137.344 68.7109C137.344 69.4297 137.455 70.0547 137.678 70.5859C137.904 71.1133 138.24 71.5215 138.686 71.8105C139.135 72.0996 139.695 72.2441 140.367 72.2441C140.75 72.2441 141.109 72.2129 141.445 72.1504C141.785 72.084 142.115 72.002 142.436 71.9043V72.7715C142.123 72.8887 141.795 72.9746 141.451 73.0293C141.107 73.0879 140.699 73.1172 140.227 73.1172C139.355 73.1172 138.627 72.9375 138.041 72.5781C137.459 72.2148 137.021 71.7031 136.729 71.043C136.439 70.3828 136.295 69.6035 136.295 68.7051C136.295 68.0566 136.385 67.4648 136.564 66.9297C136.748 66.3906 137.014 65.9258 137.361 65.5352C137.713 65.1445 138.143 64.8438 138.65 64.6328C139.162 64.418 139.748 64.3105 140.408 64.3105C140.842 64.3105 141.26 64.3535 141.662 64.4395C142.064 64.5254 142.428 64.6484 142.752 64.8086L142.354 65.6523C142.08 65.5273 141.779 65.4199 141.451 65.3301C141.127 65.2363 140.775 65.1895 140.396 65.1895ZM144.293 73V64.4336H145.289V72.1094H149.092V73H144.293Z" fill="white" fill-opacity="0.4"/>
</svg>
